<?xml version="1.0" encoding="utf-8"?>
<!-- Generator: Adobe Illustrator 16.0.0, SVG Export Plug-In . SVG Version: 6.00 Build 0)  -->
<!DOCTYPE svg PUBLIC "-//W3C//DTD SVG 1.1//EN" "http://www.w3.org/Graphics/SVG/1.1/DTD/svg11.dtd">
<svg version="1.1" id="Layer_2" xmlns="http://www.w3.org/2000/svg" xmlns:xlink="http://www.w3.org/1999/xlink" x="0px" y="0px"
	 width="1884px" height="1492px" viewBox="0 0 1884 1492" enable-background="new 0 0 1884 1492" xml:space="preserve">
<g>
	<g>
		<path fill="#1E3369" d="M1718.699,760.666l64.861,55.194l67.42,667.868h18.77l-74.896-741.714h-271.677l-60.627,741.653
			l18.71,0.12l53.719-657.212l56.086-65.911L1718.699,760.666L1718.699,760.666z M1781.17,792.161l-37.012-31.495h33.832
			L1781.17,792.161z M1537.28,798.414l3.086-37.748h29.035L1537.28,798.414z"/>
		<path fill="#121F3F" d="M1705.788,760.666l64.862,55.194l67.418,667.868h18.771l-74.897-741.714h-271.677l-60.627,741.653
			l18.71,0.12l53.719-657.212l56.088-65.911L1705.788,760.666L1705.788,760.666z M1768.258,792.161l-37.012-31.495h33.832
			L1768.258,792.161z M1524.369,798.414l3.085-37.748h29.036L1524.369,798.414z"/>
		<g>
			<g>
				<polygon fill="#1E3369" points="727.292,1483.729 709.984,1483.73 767.982,948.636 962.79,947.857 1019.107,1483.773 
					1001.849,1483.773 947.296,965.135 783.439,965.79 				"/>
			</g>
		</g>
		<path fill="#121F3F" d="M948.443,947.857l-194.808,0.777l-57.999,535.096l17.31-0.002l47.526-438.418l62.696-79.736l109.78-0.439
			l54.552,518.639h17.261L948.443,947.857z M763.321,1019.038l5.771-53.248l35.582-0.143L763.321,1019.038z"/>
		<polygon fill="#1E3369" points="760.289,1046.161 774.995,1046.161 840.271,965.463 822.696,965.463 		"/>
		<path fill="#2B407A" d="M708.499,404.422h-61.804c-37.551,0-65.178,35.18-56.272,71.66l103.517,424.08
			c7.282,29.839,34.02,50.834,64.733,50.834h489.944c0,0-21.521-129.111-21.521-135.567S708.499,404.422,708.499,404.422z"/>
		<path fill="#DDE6EF" d="M1020.319,1389.042c-2.869,8.608-21.521,81.058-12.912,90.383c8.607,9.325,85.237,6.755,94.563,6.038
			c9.325-0.718,39.576-11.775,41.011-22.536c1.437-10.76-27.976-65.275-27.976-85.36S1020.319,1389.042,1020.319,1389.042z"/>
		<path fill="#FF845E" d="M1294.337,1338.112c-2.869,25.823,10.76,44.474,10.76,44.474l-17.216,38.736l-44.474,5.021h-48.778
			l-2.869-17.933c0,0,1.436-18.65,2.869-20.803c1.435-2.153,44.476-60.974,44.476-60.974L1294.337,1338.112z"/>
		<path fill="#121F3F" d="M1105.92,868.504l109.99,4.782c-4.782,7.651,0,11.478,0,11.478
			c-9.564,25.823-61.212,516.474-61.212,516.474s65.037,1.913,76.515-7.651c11.478-9.563,25.823-37.301,33.475-40.17
			c7.652-2.869,43.041-9.564,43.041-9.564v-27.735l-15.305-11.479l19.129-23.909c0,0,82.254-389.27,90.861-429.438
			s16.26-58.342,4.782-68.863c-11.479-10.521-141.552-50.689-141.552-50.689l-190.332-2.869l-79.383-0.957L1105.92,868.504z"/>
		<path fill="#0D1A33" d="M1206.105,1353.895c3.588-2.152,51.647-20.804,63.843-27.26c12.194-6.456-16.499-3.586-28.693-5.021
			c-12.194-1.436,30.845-30.845,34.433-34.432c3.587-3.587-67.43,12.194-76.755,12.194s20.804-180.049,30.847-218.784
			c10.042-38.734,40.17-175.026,48.061-192.243c7.891-17.215-2.869-8.606-6.456-20.085c-3.587-11.477,27.976-23.672-10.76-22.954
			c-38.736,0.719-145.617-41.604-162.833-104.729l-50.68-12.056l-51.181-0.617l109.989,140.596l109.99,4.782
			c-4.782,7.65,0,11.478,0,11.478c-9.564,25.823-61.213,516.474-61.213,516.474s65.037,1.913,76.516-7.651
			c2.975-2.479,6.143-6.183,9.336-10.354c-13.276-1.659-52.376-4.231-52.376-4.231S1202.52,1356.045,1206.105,1353.895z"/>
		<path fill="#121F3F" d="M729.086,734.125c0,0-17.216,143.465,45.909,163.551c63.124,20.084,170.723,14.347,170.723,14.347
			c-1.435,11.478,10.043,17.216,10.043,17.216c-11.478,5.738-2.87,14.347-2.87,14.347c0,25.823,55.952,453.349,55.952,453.349
			s80.341,15.781,91.816,4.305c11.478-11.478,22.955-34.432,22.955-34.432l-10.043-20.086l7.174-22.954
			c0,0-1.437-398.832-1.437-456.218s-5.737-86.079-31.563-100.426c-25.822-14.347-109.032-44.475-113.336-44.475
			C970.105,722.648,729.086,734.125,729.086,734.125z"/>
		<path fill="#182A54" d="M997.302,933.963c1.035-3.363,2.019-6.446,2.922-9.279c6.611-20.738,9.35-29.322-4.368-36.183
			c-4.354-2.176-7.06-5.123-8.271-9.01c-1.937-6.209,0.088-14.822,6.016-25.6c1.222-2.219,1.389-4.261,0.496-6.067
			c-3.159-6.41-19.471-8.906-51.965-13.881c-20.959-3.208-47.044-7.201-79.34-13.711c-46.678-9.408-73.131-16.345-88.168-28.146
			c-5.489-4.309-9.551-9.291-12.438-15.705c6.583-2.33,41.201-15.896,38.928-42.734c-0.067-0.789-0.764-1.375-1.552-1.31
			c-0.788,0.067-1.375,0.762-1.309,1.551c2.088,24.628-31.513,37.798-37.166,39.832c-3.59-9.502-4.955-21.992-4.743-39.577
			c0.007-0.559-0.314-1.033-0.779-1.275c-0.474,0.021-0.941,0.045-1.404,0.065c-0.397,0.251-0.678,0.672-0.686,1.176
			c-0.74,61.5,17.147,70.476,108.75,88.938c32.362,6.522,58.483,10.521,79.475,13.733c28.499,4.362,47.326,7.245,49.824,12.313
			c0.293,0.594,0.565,1.595-0.437,3.417c-6.318,11.487-8.418,20.854-6.241,27.836c1.436,4.605,4.708,8.213,9.727,10.724
			c11.521,5.76,9.525,12.016,2.918,32.744c-0.906,2.842-1.894,5.934-2.931,9.308c-8.565,27.841,25.537,425.964,27.187,445.13
			l-2.702,20.537c0.896,0.155,1.843,0.316,2.831,0.482l2.736-20.801c0.014-0.104,0.017-0.207,0.008-0.311
			C1024.26,1373.994,988.873,961.355,997.302,933.963z"/>
		<path fill="#CCCCCC" d="M955.761,930.672c-0.263,0-0.522-0.071-0.752-0.213c-8.002-4.923-11.605-11.185-10.715-18.608
			c0.032-0.277,0.147-0.541,0.328-0.756c0.117-0.137,11.682-13.888,14.785-24.231c0.229-0.762,1.026-1.189,1.786-0.963
			c0.759,0.228,1.189,1.027,0.962,1.785c-3.033,10.11-13.179,22.653-15.059,24.923c-0.541,5.847,2.413,10.894,8.786,15.012
			c8.71-3.754,16.756-5.784,17.104-5.871c0.768-0.193,1.548,0.275,1.739,1.044c0.192,0.77-0.274,1.548-1.044,1.74
			c-0.084,0.021-8.602,2.172-17.345,6.019C956.153,930.633,955.956,930.672,955.761,930.672z"/>
		<path fill="#0D1A33" d="M1096.355,1357.241c-12.435-0.957,2.869-10.521,8.607-14.348c5.738-3.825-55.473,10.521-69.82,7.651
			c-14.346-2.869-50.689-334.751-49.733-355.793c0.957-21.041-8.607-36.345-3.825-59.299s27.736-46.865,1.913-49.734
			c-25.824-2.869-106.164-81.297-30.606-149.203l-68.276-9.754c-70.056,3.293-155.527,7.362-155.527,7.362
			S711.87,877.59,774.995,897.676c63.124,20.084,170.723,14.347,170.723,14.347c-1.435,11.478,10.043,17.216,10.043,17.216
			c-11.478,5.738-2.87,14.347-2.87,14.347c0,25.823,55.952,453.349,55.952,453.349c20.563-22.476,83.688-24.389,98.033-30.127
			C1121.223,1361.066,1108.789,1358.197,1096.355,1357.241z"/>
		<g>
			<g>
				<path fill="#103D54" d="M1081.489,205.995h-21.718v-2.869h21.718c1.078,0,1.979-0.59,2.411-1.577
					c0.432-0.989,0.252-2.051-0.481-2.842l-56.621-61.137l2.106-1.95l56.62,61.138c1.509,1.629,1.895,3.906,1.006,5.94
					C1085.641,204.731,1083.71,205.995,1081.489,205.995z"/>
			</g>
		</g>
		<path fill="#DDE6EF" d="M906.982,186.09c-81.775,12.912-164.985,80.34-167.854,81.058
			c-32.279,27.258-80.34,176.461-89.665,233.848c-9.325,57.386-8.607,183.635,16.498,192.243c25.106,8.606,352.924,0,352.924,0
			h203.721c0,0-32.279-230.979-58.104-317.058c-25.823-86.079-50.213-111.186-59.537-117.641
			c-53.082-40.888-109.751-53.799-109.751-53.799L906.982,186.09z"/>
		<path fill="#C7E3FA" d="M806.557,462.259c0,48.778,65.637,111.186,108.676,119.076c0,0-50.394-3.766-52.725-4.124
			c-2.331-0.359-71.374-10.043-71.374-10.043c0.539-5.021-6.097-6.276-6.097-6.276C786.292,552.821,797.23,485.572,806.557,462.259z
			"/>
		<path fill="#97B5D1" d="M949.954,197.957c-1.41-1.236-2.818-2.462-4.222-3.676l-38.75-8.191c-0.037,0.006-0.074,0.012-0.111,0.018
			c-6.331,1.003-11.575,5.452-13.766,11.476c-0.053,0.146-0.105,0.292-0.158,0.438c-0.896,2.463-1.744,4.79-2.301,7.348
			c-2.641,12.143,8.51,53.473,49.259,74.603c10.614,5.504,20.182,8.294,28.434,8.295c0.001,0,0,0,0.002,0
			c11.392,0,18.109-5.193,21.737-9.549c6.01-7.213,8.422-17.922,6.452-28.647C995.38,243.814,989.048,232.237,949.954,197.957z"/>
		<path fill="#FF845E" d="M903.396,168.515c2.511,22.237-3.945,30.127-5.738,38.377c-1.794,8.249,6.813,46.626,45.55,66.711
			c38.735,20.085,49.495-4.663,46.269-22.237C986.247,233.792,903.396,168.515,903.396,168.515z"/>
		<path fill="#1A0706" d="M1029.645,146.637c3.229,13.988,6.457,35.866,2.869,46.626c-3.587,10.76-8.606,32.639-7.891,43.04
			c0.718,10.401-8.249,17.216-30.485,19.728c-22.237,2.511-52.007-7.173-65.276-23.672c-13.271-16.499-12.553-19.009-16.141-34.432
			c-3.587-15.422-12.912-25.226-12.912-25.226l-21.16-52.604c-8.607-11.836-10.042-73.167,11.478-66.711
			c-1.435-15.422,21.878-41.246,57.745-37.301c35.865,3.945,60.255,21.52,77.471,30.486c17.216,8.966,24.747,19.009,22.236,25.823
			c-2.51,6.815-7.531,8.608-7.891,10.043c0.358,12.553-7.531,43.757-7.531,43.757L1029.645,146.637z"/>
		<path fill="#FF845E" d="M939.501,72.752c-5.021,2.152-6.217-1.435-6.935-1.435c-5.262,3.108-10.281,6.456-7.891,21.998
			s2.151,22.955-2.152,24.15c-4.305,1.195-12.672,9.086-9.563,10.521s5.738,2.152,1.912,3.348c-3.825,1.195-3.107,3.586,0,3.586
			c3.108,0-2.392,10.76,6.217,17.694c8.608,6.935,9.805,21.042,13.63,31.802s21.042,21.52,38.257,13.39
			c17.218-8.13,30.606-9.804,39.692-5.5c9.086,4.304,13.868,2.391,17.216-2.63c3.348-5.021,3.108-20.802,1.436-34.192
			s2.15-23.193,3.587-31.323c1.435-8.129-3.826-37.062-10.282-47.463c-6.456-10.401-10.76-8.25-15.78-3.945
			C1003.821,77.057,979.192,89.609,939.501,72.752z"/>
		<path fill="#80A6DE" d="M1864.05,742.266H497.616l0,0c0-26.146,21.194-47.342,47.341-47.342h1271.752
			C1842.855,694.924,1864.05,716.119,1864.05,742.266L1864.05,742.266z"/>
		<g>
			<path fill="#FFFFFF" d="M563.845,604.108c-11.037,4.668-15.105,19.986-9.088,34.218c6.019,14.229,19.844,21.981,30.882,17.313
				c11.037-4.668,15.106-19.987,9.088-34.219C588.709,607.19,574.882,599.44,563.845,604.108z M582.773,648.868
				c-7.57,3.202-17.306-2.706-21.741-13.196c-4.437-10.49-1.896-21.59,5.676-24.792c7.572-3.202,17.306,2.706,21.742,13.196
				C592.886,634.566,590.346,645.666,582.773,648.868z"/>
			<path fill="#FFFFFF" d="M591.838,567.467v60.12c0,19.987,3.857,39.787,11.362,58.313l0,0c2.381,5.881,8.093,9.729,14.438,9.729
				h10.306h21.28h10.306c6.346,0,12.057-3.849,14.438-9.729l0,0c7.504-18.525,11.361-38.325,11.361-58.313v-60.12H591.838z"/>
			<path fill="#CCCCCC" d="M617.638,695.629h10.306h21.28h10.306c6.346,0,12.057-3.849,14.438-9.729l0,0
				c0.325-0.806,0.636-1.615,0.947-2.426c-16.872-15.522-47.992-51.26-66.521-116.008h-16.558v60.12
				c0,19.987,3.857,39.787,11.362,58.313l0,0C605.581,691.78,611.293,695.629,617.638,695.629z"/>
		</g>
		<g>
			<ellipse fill="#1A0706" cx="964.308" cy="147.713" rx="4.245" ry="7.532"/>
			<path fill="#1A0706" d="M954.594,148.878c-0.139,0-0.277-0.04-0.4-0.124c-0.328-0.222-0.414-0.668-0.191-0.996
				c3.872-5.703,7.387-8.638,10.745-8.971c2.354-0.241,4.622,0.758,6.938,3.034c0.282,0.278,0.286,0.731,0.01,1.014
				c-0.279,0.284-0.732,0.286-1.015,0.01c-1.995-1.958-3.887-2.826-5.793-2.63c-2.907,0.29-6.082,3.02-9.698,8.35
				C955.05,148.769,954.823,148.878,954.594,148.878z"/>
			<path fill="#EBA492" d="M961.26,158.055c-0.396,0-0.718-0.321-0.718-0.717c0-0.397,0.321-0.718,0.718-0.718
				c4.344,0,6.183-1.079,6.2-1.09c0.338-0.203,0.778-0.098,0.983,0.237c0.205,0.336,0.105,0.773-0.229,0.982
				C968.13,156.803,966.073,158.055,961.26,158.055z"/>
		</g>
		<g>
			<ellipse fill="#1A0706" cx="1014.521" cy="145.322" rx="4.243" ry="7.532"/>
			<path fill="#1A0706" d="M1004.807,146.487c-0.139,0-0.278-0.04-0.401-0.124c-0.327-0.222-0.413-0.668-0.19-0.996
				c3.871-5.703,7.387-8.638,10.745-8.971c2.354-0.241,4.621,0.758,6.938,3.034c0.282,0.278,0.287,0.732,0.01,1.015
				c-0.279,0.283-0.733,0.286-1.014,0.01c-1.996-1.959-3.888-2.827-5.793-2.631c-2.908,0.29-6.082,3.02-9.7,8.35
				C1005.262,146.377,1005.036,146.487,1004.807,146.487z"/>
			<path fill="#EBA492" d="M1011.473,155.664c-0.396,0-0.718-0.321-0.718-0.717c0-0.396,0.321-0.718,0.718-0.718
				c4.344,0,6.182-1.079,6.199-1.09c0.339-0.203,0.779-0.098,0.984,0.237c0.206,0.336,0.105,0.773-0.229,0.982
				C1018.343,154.412,1016.286,155.664,1011.473,155.664z"/>
		</g>
		<path fill="#EBA492" d="M983.143,191.474c-2.34,0-4.39-1.135-5.521-3.071c-1.443-2.473-1.196-5.756,0.66-8.785
			c0.206-0.337,0.646-0.443,0.985-0.237c0.338,0.207,0.444,0.648,0.236,0.986c-1.574,2.57-1.814,5.304-0.643,7.312
			c0.912,1.565,2.574,2.408,4.487,2.356c0.41-0.029,0.73,0.295,0.743,0.691c0.016,0.396-0.295,0.729-0.689,0.742
			C983.314,191.473,983.229,191.474,983.143,191.474z"/>
		<path fill="#1A0706" d="M981.046,114.357c-4.483,6.814-10.043,10.042-22.416,7.891c-12.374-2.152-24.031,3.048-29.231,6.635
			c8.968-13.091,15.781-18.113,28.155-14.885C969.927,117.227,981.046,114.357,981.046,114.357z"/>
		<path fill="#1A0706" d="M1003.821,116.33c3.766,4.663,7.891,7.353,16.498,5.2c8.606-2.152,12.911,2.152,12.911,2.152
			C1030.541,114.537,1030.899,113.64,1003.821,116.33z"/>
		<path fill="#EBA492" d="M980.27,121.052c-0.154,0-0.31-0.049-0.439-0.15c-0.313-0.242-0.37-0.693-0.127-1.006
			c3.505-4.522,3.258-8.581-0.826-13.572c-0.25-0.306-0.205-0.758,0.102-1.01c0.308-0.25,0.759-0.206,1.011,0.102
			c4.528,5.536,4.791,10.272,0.849,15.359C980.694,120.957,980.482,121.052,980.27,121.052z"/>
		<path fill="#FF845E" d="M1014.655,212.758c-5.728-8.399-16.341-11.931-26.194-9.433c-12.255,3.106-19.689,11.391-20.984,17.674
			c-1.674,8.129,2.393,17.455,11.717,14.825c9.326-2.63,14.347-4.304,24.149-1.913c9.804,2.391,17.693-9.325,12.673-18.89
			C1015.597,214.225,1015.141,213.471,1014.655,212.758z"/>
		<path fill="#EBA492" d="M987.202,229.249c-0.312,0-0.597-0.203-0.688-0.517c-0.111-0.38,0.106-0.778,0.486-0.89
			c7.891-2.307,12.538-0.894,12.731-0.832c0.378,0.119,0.586,0.521,0.468,0.897s-0.525,0.588-0.897,0.471
			c-0.043-0.012-4.468-1.33-11.898,0.841C987.337,229.24,987.27,229.249,987.202,229.249z"/>
		<path fill="#1A0706" d="M987.764,216.216c-3.296,0-6.632-0.17-9.744-0.603c-0.394-0.055-0.666-0.417-0.611-0.81
			c0.054-0.392,0.413-0.668,0.809-0.612c12.568,1.748,29.199-0.927,30.59-1.506c0.363-0.152,0.785,0.02,0.938,0.386
			c0.153,0.366-0.021,0.786-0.388,0.938C1008.126,214.522,998.152,216.216,987.764,216.216z"/>
		<path fill="#FF8B69" d="M924.197,68.688c-0.114,0-0.231-0.027-0.339-0.085c-0.156-0.083-15.658-8.394-30.247-13.1
			c-0.378-0.122-0.584-0.526-0.463-0.903s0.525-0.583,0.902-0.463c14.717,4.748,30.33,13.118,30.486,13.202
			c0.349,0.188,0.479,0.623,0.291,0.971C924.7,68.551,924.453,68.688,924.197,68.688z"/>
		<path fill="#FF8B69" d="M928.61,119.473c-0.115,0-0.232-0.027-0.341-0.086c-0.154-0.083-3.571-2.749-18.159-7.455
			c-0.378-0.122-0.585-0.526-0.464-0.903c0.121-0.377,0.526-0.582,0.902-0.463c14.717,4.748,18.245,7.473,18.4,7.557
			c0.349,0.188,0.479,0.623,0.292,0.972C929.112,119.336,928.865,119.473,928.61,119.473z"/>
		<path fill="#FF8B69" d="M927.414,125.689c-0.114,0-0.231-0.027-0.339-0.086c-0.155-0.083-3.572-2.749-18.161-7.455
			c-0.378-0.122-0.584-0.526-0.463-0.903c0.122-0.377,0.525-0.582,0.902-0.463c14.718,4.748,18.244,7.473,18.4,7.557
			c0.35,0.188,0.479,0.623,0.292,0.972C927.917,125.553,927.67,125.689,927.414,125.689z"/>
		<path fill="#97B5D1" d="M827.357,351.074c-0.69,0-1.301-0.5-1.414-1.204c-0.106-0.651-11.35-65.417-70.082-86.393
			c-0.746-0.267-1.136-1.088-0.868-1.834c0.267-0.746,1.09-1.133,1.834-0.869c60.354,21.556,71.839,87.966,71.946,88.634
			c0.129,0.783-0.401,1.52-1.184,1.646C827.512,351.068,827.436,351.074,827.357,351.074z"/>
		<path fill="#97B5D1" d="M981.561,583.487c-40.544,0.698-149.839-8.789-188.739-17.663c-0.403-2.275-2.02-5.277-6.175-5.896
			c1.28-10.054,9.161-68.445,23.381-101.405c0.313-0.728-0.021-1.571-0.75-1.887c-0.729-0.314-1.572,0.022-1.886,0.75
			c-14.73,34.149-22.697,95.039-23.677,102.86c-3.773,1.603-20.53,9.058-34.507,20.704c-0.608,0.507-0.689,1.411-0.185,2.02
			c0.284,0.341,0.691,0.518,1.104,0.518c0.323,0,0.649-0.109,0.918-0.333c14.397-11.998,31.853-19.463,34.244-20.457
			c3.963,0.116,4.641,2.85,4.748,3.954c-1.165,2.08-7.433,13.421-13.251,26.783c-0.315,0.728,0.017,1.571,0.743,1.89
			c0.187,0.081,0.381,0.119,0.571,0.119c0.554,0,1.08-0.322,1.315-0.862c5.359-12.307,11.099-22.876,12.804-25.953
			c37.754,8.602,141.241,17.764,184.945,17.764c1.559,0,3.041-0.011,4.441-0.034c0.791-0.015,1.424-0.667,1.409-1.459
			C983.005,584.104,982.308,583.467,981.561,583.487z"/>
		<path fill="#97B5D1" d="M1130.787,370.681c0-0.792-0.643-1.435-1.436-1.435c-0.792,0-1.435,0.643-1.435,1.435
			c0,4.529-2.94,11.067-5.237,15.489c-0.343-16.316-1.675-36.949-4.814-62.529c-0.098-0.787-0.813-1.338-1.601-1.249
			c-0.786,0.097-1.346,0.813-1.249,1.6c3.463,28.195,4.686,50.423,4.813,67.444c-0.044,0.211-0.048,0.425,0.003,0.631
			c0.187,31.073-3.287,44.508-3.342,44.71c-0.207,0.764,0.244,1.552,1.008,1.76c0.127,0.034,0.253,0.051,0.378,0.051
			c0.63,0,1.208-0.419,1.383-1.057c0.229-0.84,3.732-14.3,3.501-45.58C1124.274,389.418,1130.787,378.091,1130.787,370.681z"/>
		<rect x="848.161" y="382.637" fill="#FFFFFF" width="82.015" height="47.821"/>
		<rect x="882.952" y="366.975" fill="#2B407A" width="12.434" height="24.868"/>
		<polygon fill="#CCCCCC" points="930.176,382.637 937.468,441.696 848.161,430.458 930.176,430.458 		"/>
		<path fill="#071C26" d="M1311.912,665.262H868.964c-16.242,0-29.41,13.168-29.41,29.411l0,0h472.358
			c8.121,0,14.705-6.584,14.705-14.705v-0.001C1326.617,671.846,1320.033,665.262,1311.912,665.262z"/>
		<path fill="#071C26" d="M1045.803,424.241h312.575c5.624,0,9.661,5.417,8.052,10.807l-64.705,216.765
			c-2.255,7.556-9.203,12.732-17.09,12.732H972.061c-5.625,0-9.662-5.418-8.054-10.807l64.706-216.765
			C1030.968,429.419,1037.917,424.241,1045.803,424.241z"/>
		<path fill="#103D54" d="M1061.584,424.241h312.575c5.624,0,9.661,5.417,8.052,10.807l-64.705,216.765
			c-2.256,7.556-9.204,12.732-17.09,12.732H987.841c-5.625,0-9.661-5.418-8.053-10.807l64.706-216.765
			C1046.749,429.419,1053.698,424.241,1061.584,424.241z"/>
		<path fill="#103D54" d="M1058.696,214.962h-13.093c-5.348,0-9.684-4.335-9.684-9.684l0,0c0-5.349,4.336-9.684,9.684-9.684h13.093
			c5.348,0,9.684,4.335,9.684,9.684l0,0C1068.38,210.626,1064.044,214.962,1058.696,214.962z"/>
		<g>
			<path fill="#752624" d="M983.72,174.971h-45.258c-0.801,0-1.553-0.353-2.063-0.97c-0.512-0.616-0.72-1.421-0.571-2.208
				l4.521-24.045c0.237-1.268,1.347-2.188,2.636-2.188h45.258c0.801,0,1.553,0.354,2.063,0.971c0.513,0.616,0.72,1.42,0.571,2.207
				l-4.521,24.046C986.118,174.051,985.009,174.971,983.72,174.971z M942.982,146.996c-0.6,0-1.114,0.428-1.226,1.017l-4.521,24.046
				c-0.068,0.365,0.028,0.74,0.267,1.027s0.588,0.451,0.96,0.451h45.258c0.601,0,1.115-0.428,1.228-1.017l4.521-24.046
				c0.068-0.366-0.028-0.741-0.266-1.027c-0.238-0.287-0.588-0.451-0.961-0.451H942.982z"/>
		</g>
		<g>
			<path fill="#1A0706" d="M984.977,174.971h-45.259c-0.801,0-1.553-0.353-2.063-0.97c-0.513-0.616-0.721-1.421-0.571-2.208
				l4.521-24.045c0.237-1.268,1.348-2.188,2.637-2.188h45.258c0.801,0,1.553,0.354,2.064,0.971c0.511,0.616,0.719,1.42,0.569,2.207
				l-4.521,24.046C987.374,174.051,986.265,174.971,984.977,174.971z M944.239,146.996c-0.601,0-1.115,0.428-1.228,1.017
				l-4.521,24.046c-0.068,0.365,0.028,0.74,0.266,1.027c0.238,0.287,0.588,0.451,0.961,0.451h45.259c0.6,0,1.114-0.428,1.227-1.017
				l4.521-24.046c0.069-0.366-0.027-0.741-0.266-1.027c-0.238-0.287-0.588-0.451-0.96-0.451H944.239z"/>
		</g>
		<g>
			<path fill="#752624" d="M1039.671,175.061h-32.33l-1.368-1.435h33.698c0.601,0,1.116-0.428,1.228-1.017l4.521-24.046
				c0.068-0.366-0.028-0.74-0.266-1.027c-0.238-0.286-0.588-0.451-0.961-0.451h-38.084c-0.601,0-1.115,0.428-1.228,1.018
				l-2.563,13.63l-0.628-4.336l1.78-9.559c0.237-1.267,1.348-2.187,2.637-2.187h38.084c0.801,0,1.553,0.354,2.063,0.97
				c0.512,0.616,0.72,1.421,0.571,2.208l-4.521,24.046C1042.069,174.141,1040.961,175.061,1039.671,175.061z"/>
		</g>
		<g>
			<path fill="#1A0706" d="M1040.927,174.971h-33.698v-1.435h33.698c0.601,0,1.115-0.428,1.228-1.017l4.521-24.046
				c0.069-0.366-0.027-0.741-0.265-1.027c-0.238-0.287-0.588-0.451-0.961-0.451h-38.085c-0.601,0-1.115,0.428-1.227,1.017
				l-2.563,13.63l-1.409-0.265l2.563-13.63c0.238-1.268,1.348-2.188,2.637-2.188h38.085c0.801,0,1.553,0.354,2.063,0.971
				c0.512,0.616,0.719,1.42,0.57,2.207l-4.521,24.046C1043.325,174.051,1042.216,174.971,1040.927,174.971z"/>
		</g>
		<path fill="#1A0706" d="M985.889,161.342c-0.216,0-0.429-0.096-0.568-0.279c-0.241-0.314-0.185-0.764,0.131-1.006
			c6.355-4.896,10.721-5.15,13.266-4.505c2.326,0.592,4.111,2.163,5.164,4.544c0.16,0.362-0.004,0.786-0.367,0.946
			c-0.361,0.161-0.785-0.003-0.944-0.366c-0.867-1.963-2.322-3.254-4.205-3.734c-3.16-0.806-7.435,0.706-12.037,4.251
			C986.195,161.293,986.041,161.342,985.889,161.342z"/>
		<path fill="#1A0706" d="M1009.964,178.085c-1.292-2.115-3.063-5.012-4.563-9.613c-1.357-4.159-2.067-7.96-2.693-11.313
			c-0.69-3.695-1.287-6.885-2.547-9.408c-1.221-2.437-0.346-4.439,1.104-7.754c1.05-2.399,2.354-5.384,3.257-9.526
			c0.086-0.387-0.159-0.769-0.548-0.853c-0.384-0.09-0.77,0.16-0.854,0.548c-0.873,4.002-2.146,6.916-3.17,9.256
			c-1.506,3.444-2.595,5.934-1.075,8.971c1.171,2.342,1.75,5.441,2.42,9.03c0.635,3.397,1.354,7.247,2.741,11.496
			c1.555,4.761,3.45,7.863,4.703,9.916c0.938,1.538,1.619,2.648,1.4,3.246c-0.515,1.415-9.154,4.555-20.271,4.012
			c-0.396-0.006-0.732,0.286-0.752,0.682s0.287,0.732,0.682,0.751c0.845,0.041,1.687,0.061,2.521,0.061
			c5.522,0,10.744-0.856,14.354-2.048c1.926,1.246,1.54,2.678,1.493,2.829c-0.131,0.375,0.065,0.783,0.44,0.913
			c0.078,0.027,0.157,0.04,0.236,0.04c0.297,0,0.574-0.187,0.678-0.481c0.271-0.779,0.275-2.463-1.271-3.888
			c1.77-0.742,2.944-1.566,3.24-2.379C1011.942,181.323,1011.155,180.034,1009.964,178.085z"/>
		<polygon fill="#752624" points="899.45,132.051 939.62,148.311 938.066,156.918 900.885,135.877 		"/>
		<path fill="#FF845E" d="M899.809,173.178c13.781-11.955,4.178-56.43-19.207-57.386c-12.158-0.497-15.587,17.127-12.843,32.997
			C870.294,163.446,881.964,177.081,899.809,173.178z"/>
		<path fill="#EBA492" d="M892.814,169.95c-0.088,0-0.18-0.016-0.266-0.051c-9.007-3.586-10.451-8.897-10.511-11.745
			c-0.081-3.863,2.279-7.539,5.872-9.146c3.096-1.383,6.41-0.986,9.298,1.066c-0.817-10.384-6.221-20.585-12.712-23.689
			c-3.163-1.513-6.19-1.204-9.004,0.919c-0.317,0.24-0.768,0.176-1.004-0.14c-0.239-0.316-0.176-0.766,0.14-1.004
			c3.229-2.436,6.856-2.806,10.487-1.07c7.389,3.534,13.242,14.946,13.615,26.546c0.011,0.29-0.155,0.557-0.42,0.676
			s-0.573,0.068-0.785-0.128c-2.721-2.535-6.013-3.217-9.028-1.865c-3.074,1.375-5.093,4.512-5.024,7.807
			c0.053,2.492,1.369,7.162,9.607,10.442c0.367,0.146,0.547,0.563,0.4,0.932C893.37,169.779,893.102,169.95,892.814,169.95z"/>
		<rect x="1352.201" y="265.952" fill="#0D3245" width="362.488" height="323.273"/>
		<rect x="1367.982" y="265.952" fill="#144B69" width="412.223" height="323.273"/>
		<rect x="1560.465" y="460.825" fill="#103D54" width="116.206" height="125.532"/>
		<rect x="1572.659" y="586.356" fill="#0D3245" width="91.1" height="73.525"/>
		<path fill="#103D54" d="M1683.605,660.002h-11.238v-73.646h-91.102v73.646h-96.6c-19.28,0-34.909,15.629-34.909,34.909v0.001
			h268.758v-0.001C1718.516,675.631,1702.885,660.002,1683.605,660.002z"/>
		<rect x="1560.465" y="460.825" fill="#0D3245" width="12.911" height="125.532"/>
		<rect x="1480.124" y="553.12" fill="#0D3245" width="61.451" height="21.521"/>
		<circle fill="#3D5BAD" cx="1487.895" cy="563.881" r="3.467"/>
		<circle fill="#3D5BAD" cx="1533.804" cy="563.881" r="3.467"/>
		<path fill="#060F1E" d="M1239.819,891.458c-0.229,0-0.459-0.054-0.675-0.169c-0.066-0.035-7.197-3.711-23.357-5.096
			c-0.406-0.035-0.779-0.242-1.024-0.569c-1.712-2.282-3.915-7.979,0-13.198c0.446-0.555,10.236-12.654,13.702-15.132
			c0.646-0.461,1.541-0.312,2.002,0.333c0.461,0.646,0.313,1.541-0.333,2.001c-2.615,1.868-10.349,11.144-13.108,14.56
			c-2.924,3.901-1.111,7.828-0.296,9.209c16.344,1.486,23.468,5.201,23.768,5.361c0.698,0.373,0.963,1.242,0.59,1.941
			C1240.828,891.183,1240.332,891.458,1239.819,891.458z"/>
		<path fill="#DDE6EF" d="M1169.881,1483.729h315.98c-13.629-27.259-48.777-53.8-92.533-65.275
			c-43.757-11.479-81.059-32.28-81.775-44.475s-38.734,10.043-30.845,36.584c-48.062,7.173-88.948-2.152-88.948-2.152
			C1175.979,1431.364,1169.881,1483.729,1169.881,1483.729z"/>
		<g>
			<path fill="#FFFFFF" d="M1313.695,1419.433c-2.906,0-5.271-2.363-5.271-5.271c0-2.905,2.364-5.271,5.271-5.271
				c2.904,0,5.27,2.364,5.27,5.271S1316.601,1419.433,1313.695,1419.433z M1313.695,1411.762c-1.324,0-2.4,1.077-2.4,2.4
				c0,1.324,1.076,2.4,2.4,2.4c1.322,0,2.399-1.076,2.399-2.4C1316.096,1412.839,1315.02,1411.762,1313.695,1411.762z"/>
		</g>
		<path fill="#FFFFFF" d="M1411.979,1466.514h-230.262c-0.792,0-1.435-0.643-1.435-1.436c0-0.792,0.643-1.434,1.435-1.434h222.426
			l-108.161-40.981c-0.74-0.28-1.113-1.108-0.833-1.85s1.11-1.112,1.851-0.833l115.489,43.757c0.646,0.245,1.027,0.918,0.902,1.6
			C1413.266,1466.018,1412.671,1466.514,1411.979,1466.514z"/>
		<path fill="#FFFFFF" d="M1313.943,1415.104c-0.204,0-0.411-0.043-0.606-0.135c-0.719-0.336-1.028-1.188-0.692-1.906
			c0.365-0.783,9.136-19.181,24.377-20.43c0.8-0.072,1.48,0.522,1.547,1.313c0.065,0.791-0.522,1.481-1.313,1.547
			c-13.599,1.115-21.929,18.606-22.012,18.784C1314.999,1414.799,1314.482,1415.104,1313.943,1415.104z"/>
		<path fill="#FFFFFF" d="M1051.948,1442.691c-0.174-0.105-0.328-0.25-0.448-0.432c-0.438-0.66-0.259-1.55,0.399-1.988
			c0.72-0.479,36.618-9.811,50.288-2.957c0.72,0.354,0.993,1.218,0.64,1.927c-0.355,0.708-1.217,0.995-1.926,0.639
			c-12.198-6.114-47.25,2.673-47.412,2.78C1053.01,1442.979,1052.409,1442.972,1051.948,1442.691z"/>
		<g>
			<path fill="#FFFFFF" d="M1354.941,1434.496c-2.906,0-5.271-2.363-5.271-5.271c0-2.906,2.363-5.27,5.271-5.27
				c2.904,0,5.27,2.363,5.27,5.27C1360.211,1432.133,1357.847,1434.496,1354.941,1434.496z M1354.941,1426.826
				c-1.324,0-2.4,1.076-2.4,2.4c0,1.323,1.076,2.399,2.4,2.399c1.323,0,2.399-1.076,2.399-2.399
				C1357.341,1427.902,1356.266,1426.826,1354.941,1426.826z"/>
		</g>
		<path fill="#FFFFFF" d="M1355.189,1430.169c-0.204,0-0.411-0.044-0.607-0.136c-0.718-0.335-1.027-1.189-0.691-1.906
			c0.365-0.783,9.135-19.181,24.376-20.43c0.8-0.072,1.481,0.522,1.547,1.313c0.065,0.789-0.521,1.481-1.313,1.546
			c-13.601,1.115-21.929,18.608-22.012,18.785C1356.245,1429.862,1355.729,1430.169,1355.189,1430.169z"/>
		<g>
			<path fill="#FFFFFF" d="M1397.084,1450.277c-2.905,0-5.27-2.364-5.27-5.271s2.363-5.271,5.27-5.271s5.271,2.363,5.271,5.271
				C1402.354,1447.913,1399.99,1450.277,1397.084,1450.277z M1397.084,1442.607c-1.324,0-2.4,1.076-2.4,2.399
				c0,1.324,1.076,2.4,2.4,2.4s2.4-1.076,2.4-2.4C1399.484,1443.684,1398.408,1442.607,1397.084,1442.607z"/>
		</g>
		<path fill="#FFFFFF" d="M1397.332,1445.949c-0.204,0-0.41-0.043-0.605-0.135c-0.719-0.337-1.028-1.189-0.692-1.906
			c0.364-0.783,9.136-19.182,24.377-20.431c0.799-0.071,1.481,0.522,1.547,1.313c0.063,0.79-0.522,1.482-1.313,1.547
			c-13.599,1.115-21.929,18.608-22.012,18.784C1398.389,1445.645,1397.871,1445.949,1397.332,1445.949z"/>
		<path fill="#FFFFFF" d="M1087.271,1476.172c-29.522,0-76.209-11.598-78.619-12.418c-0.751-0.255-1.151-1.07-0.897-1.82
			c0.256-0.75,1.074-1.148,1.82-0.896c0.696,0.238,68.903,19.098,91.581,10.305c22.675-8.793,32.466-16.339,32.55-16.461
			c0.451-0.646,1.348-0.811,1.996-0.356c0.649,0.451,0.813,1.343,0.36,1.992c-0.36,0.522-10.299,8.359-33.869,17.5
			C1098.276,1475.535,1093.134,1476.172,1087.271,1476.172z"/>
		<path fill="#1E3369" d="M770.396,760.666l64.861,55.194l67.42,667.868h18.771L846.55,742.016H574.874l-60.627,741.653l18.711,0.12
			l53.719-657.212l56.086-65.911H770.396L770.396,760.666z M832.867,792.161l-37.012-31.495h33.832L832.867,792.161z
			 M588.979,798.414l3.086-37.748h29.034L588.979,798.414z"/>
		<path fill="#121F3F" d="M757.485,760.666l64.861,55.194l67.419,667.868h18.771l-74.897-741.714H561.962l-60.627,741.653
			l18.711,0.12l53.719-657.212l56.086-65.911L757.485,760.666L757.485,760.666z M819.955,792.161l-37.012-31.495h33.833
			L819.955,792.161z M576.066,798.414l3.085-37.748h29.036L576.066,798.414z"/>
		<polygon fill="#1E3369" points="835.79,760.308 1797.005,760.308 1794.854,742.016 833.639,742.016 		"/>
		<g>
			<path fill="#0E4A49" d="M470.188,1120.57c0,0-0.908-1.48-2.613-4.259c-1.723-2.748-4.168-6.913-7.426-11.97
				c-1.621-2.542-3.416-5.355-5.369-8.42c-2.017-3.029-4.195-6.305-6.523-9.806c-4.707-6.966-10.189-14.689-16.438-22.9
				c-6.356-8.104-13.35-16.834-21.58-25.228c-8.17-8.438-17.344-16.808-27.81-24.106c-10.483-7.238-22.262-13.355-35.004-17.432
				c-12.727-4.113-26.344-6.139-40.021-6.301c-13.691-0.185-27.414,1.396-40.751,3.893c-6.624,1.485-13.245,2.784-19.649,4.666
				c-1.609,0.437-3.215,0.871-4.813,1.305c-1.604,0.418-3.194,0.867-4.757,1.392c-3.141,0.996-6.258,1.987-9.351,2.97
				c-3.11,0.932-6.12,2.079-9.124,3.15c-3.002,1.082-5.977,2.153-8.918,3.214c-5.813,2.316-11.499,4.584-17.035,6.791
				c-5.469,2.379-10.789,4.691-15.934,6.931c-5.09,2.371-10.006,4.662-14.728,6.86c-4.744,2.151-9.16,4.486-13.43,6.564
				c-4.244,2.131-8.313,4.07-12.043,6.073c-7.486,3.955-14.079,7.287-19.396,10.235c-10.67,5.844-16.766,9.183-16.766,9.183
				s6.02-3.477,16.556-9.56c5.253-3.069,11.771-6.551,19.173-10.679c3.689-2.089,7.715-4.121,11.916-6.35
				c4.227-2.179,8.597-4.615,13.3-6.878c4.681-2.312,9.556-4.719,14.602-7.208c5.11-2.362,10.395-4.805,15.826-7.313
				c5.511-2.342,11.172-4.748,16.958-7.207c2.935-1.133,5.9-2.277,8.896-3.436c2.998-1.147,6.004-2.37,9.117-3.38
				c3.096-1.062,6.217-2.132,9.361-3.208c1.564-0.563,3.159-1.054,4.771-1.513c1.605-0.476,3.218-0.95,4.834-1.429
				c6.431-2.048,13.112-3.519,19.805-5.177c13.494-2.843,27.476-4.783,41.598-4.913c14.104-0.151,28.336,1.621,41.762,5.629
				c13.439,3.966,25.964,10.116,37.089,17.437c11.106,7.38,20.822,15.856,29.453,24.378c8.7,8.483,16.061,17.259,22.75,25.403
				c6.569,8.24,12.329,15.981,17.268,22.944c2.443,3.499,4.729,6.772,6.846,9.802c2.059,3.071,3.947,5.894,5.655,8.441
				c3.444,5.096,5.931,9.121,7.729,11.854c1.768,2.737,2.711,4.197,2.711,4.197L470.188,1120.57z"/>
			<path fill="#0B3B3A" d="M500.01,1128.618c0,0-2.51-5.587-6.902-15.363c-4.412-9.754-10.734-23.654-18.564-40.243
				c-1.97-4.139-4.021-8.449-6.146-12.912c-2.161-4.441-4.396-9.035-6.693-13.757c-2.35-4.693-4.761-9.518-7.227-14.446
				c-2.532-4.894-5.119-9.893-7.75-14.977c-2.715-5.036-5.377-10.216-8.266-15.344c-1.426-2.575-2.859-5.167-4.301-7.771
				c-1.484-2.579-2.977-5.17-4.475-7.771c-1.484-2.61-3.012-5.209-4.589-7.785c-1.563-2.586-3.133-5.179-4.704-7.777
				c-3.248-5.126-6.466-10.308-9.896-15.342c-6.791-10.11-13.883-20.034-21.494-29.29c-7.58-9.279-15.551-17.993-23.795-25.886
				c-8.244-7.887-16.722-15.001-25.237-21.104c-8.497-6.13-16.916-11.392-24.889-15.903c-8.038-4.392-15.523-8.232-22.336-11.261
				c-3.374-1.589-6.583-2.955-9.559-4.205c-1.485-0.631-2.911-1.234-4.273-1.813c-1.376-0.545-2.687-1.063-3.932-1.558
				c-4.967-2.009-8.921-3.454-11.615-4.444c-2.692-0.997-4.129-1.528-4.129-1.528s1.449,0.494,4.166,1.423
				c2.72,0.921,6.712,2.266,11.731,4.147c1.259,0.461,2.585,0.947,3.977,1.457c1.379,0.543,2.82,1.111,4.324,1.704
				c3.012,1.176,6.263,2.464,9.685,3.968c6.907,2.861,14.516,6.521,22.71,10.73c8.132,4.331,16.748,9.411,25.481,15.38
				c8.755,5.94,17.513,12.913,26.062,20.683c8.549,7.773,16.85,16.393,24.762,25.59c7.947,9.176,15.375,19.022,22.498,29.063
				c3.599,5.002,6.977,10.145,10.391,15.238c1.652,2.58,3.302,5.155,4.946,7.724c1.658,2.561,3.266,5.141,4.827,7.731
				c1.577,2.584,3.148,5.157,4.712,7.719c1.52,2.586,3.03,5.158,4.532,7.716c3.043,5.095,5.854,10.229,8.716,15.231
				c2.777,5.047,5.51,10.01,8.182,14.865c2.604,4.892,5.154,9.676,7.637,14.334c2.43,4.685,4.792,9.239,7.078,13.646
				c2.248,4.425,4.419,8.699,6.504,12.805c8.279,16.438,14.992,30.247,19.665,39.909c4.642,9.661,7.294,15.182,7.294,15.182
				L500.01,1128.618z"/>
			<path fill="#0B3B3A" d="M245.609,577.749c0,0,1.891,1.655,5.437,4.76c3.528,3.123,8.784,7.616,15.326,13.495
				c3.152,3.07,6.645,6.469,10.445,10.17c3.781,3.721,8.006,7.621,12.092,12.195c4.179,4.489,8.625,9.266,13.313,14.301
				c4.526,5.179,9.154,10.739,14.058,16.48c1.222,1.438,2.456,2.894,3.704,4.361c1.221,1.489,2.389,3.046,3.604,4.588
				c2.413,3.1,4.871,6.257,7.373,9.469c1.25,1.604,2.512,3.225,3.783,4.856c1.281,1.625,2.559,3.275,3.759,5.001
				c2.45,3.415,4.938,6.882,7.462,10.397c2.5,3.53,5.131,7.045,7.619,10.723c2.456,3.698,4.942,7.442,7.455,11.229
				c2.489,3.801,5.111,7.577,7.566,11.512c2.434,3.947,4.891,7.933,7.368,11.951c1.239,2.01,2.484,4.026,3.733,6.054l1.878,3.045
				l1.794,3.108c2.391,4.157,4.795,8.347,7.216,12.561c4.957,8.366,9.431,17.131,14.164,25.846c1.16,2.192,2.379,4.359,3.494,6.583
				c1.117,2.225,2.237,4.451,3.358,6.683c2.24,4.462,4.49,8.938,6.744,13.421c2.261,4.48,4.317,9.069,6.491,13.607
				c2.134,4.56,4.325,9.098,6.416,13.682c8.242,18.387,16.251,36.89,23.477,55.368c1.814,4.616,3.624,9.214,5.424,13.789
				c1.716,4.605,3.423,9.188,5.12,13.745c3.469,9.087,6.543,18.188,9.714,27.09c3.09,8.929,5.99,17.757,8.844,26.394
				c1.372,4.335,2.73,8.624,4.071,12.861c0.67,2.119,1.335,4.225,1.997,6.316c0.631,2.103,1.259,4.19,1.882,6.266
				c1.247,4.147,2.476,8.24,3.688,12.271c1.16,4.046,2.304,8.029,3.428,11.947c2.281,7.827,4.295,15.442,6.283,22.739
				c1.961,7.304,3.737,14.331,5.448,21.009c1.627,6.7,3.251,13.036,4.619,19.03c2.853,11.959,5.101,22.444,6.933,31.088
				c1.793,8.653,3.127,15.472,3.981,20.145c0.87,4.656,1.287,7.212,1.287,7.212l-9.923,1.551c0,0-0.354-2.413-1.144-7.035
				c-0.769-4.611-1.983-11.38-3.627-19.981c-1.683-8.596-3.75-19.034-6.396-30.956c-1.267-5.973-2.781-12.293-4.293-18.975
				c-1.599-6.662-3.254-13.674-5.09-20.965c-1.863-7.283-3.748-14.886-5.896-22.704c-1.057-3.913-2.131-7.893-3.223-11.934
				c-1.143-4.027-2.301-8.115-3.477-12.262c-0.587-2.071-1.179-4.159-1.773-6.26c-0.626-2.091-1.256-4.196-1.889-6.313
				c-1.27-4.235-2.554-8.523-3.851-12.857c-2.704-8.634-5.452-17.462-8.389-26.394c-3.017-8.903-5.935-18.012-9.244-27.104
				c-1.617-4.56-3.246-9.146-4.881-13.758c-1.722-4.58-3.448-9.185-5.185-13.805c-6.901-18.503-14.585-37.038-22.504-55.474
				c-2.01-4.595-4.121-9.145-6.174-13.715c-2.094-4.553-4.072-9.155-6.252-13.65c-2.174-4.498-4.343-8.987-6.506-13.465
				c-1.082-2.238-2.162-4.475-3.24-6.706c-1.076-2.23-2.256-4.407-3.375-6.606c-4.578-8.748-8.898-17.553-13.703-25.956
				c-2.346-4.235-4.678-8.443-6.992-12.623l-1.737-3.125l-1.823-3.062c-1.212-2.037-2.421-4.065-3.624-6.087
				c-2.406-4.042-4.792-8.051-7.156-12.021c-2.384-3.958-4.936-7.758-7.355-11.585c-2.446-3.812-4.866-7.58-7.257-11.306
				c-2.422-3.703-4.987-7.243-7.425-10.803c-2.461-3.543-4.887-7.038-7.276-10.479c-1.17-1.74-2.416-3.404-3.668-5.043
				c-1.242-1.647-2.476-3.281-3.696-4.901c-2.443-3.241-4.846-6.428-7.204-9.555c-1.188-1.559-2.328-3.129-3.523-4.633
				c-1.221-1.483-2.428-2.953-3.624-4.406c-4.8-5.801-9.332-11.423-13.769-16.661c-4.6-5.099-8.962-9.935-13.062-14.479
				c-4.011-4.634-8.159-8.585-11.877-12.357c-3.738-3.755-7.173-7.204-10.273-10.32c-6.448-5.979-11.634-10.554-15.113-13.73
				C247.474,579.434,245.609,577.749,245.609,577.749z"/>
			<path fill="#0B3B3A" d="M536.153,1132.43c0,0,0.188-1.59,0.536-4.569c0.177-1.49,0.393-3.328,0.646-5.49
				c0.141-1.086,0.233-2.229,0.438-3.492c0.213-1.267,0.438-2.612,0.675-4.032c0.499-2.836,0.952-6.005,1.636-9.392
				c0.754-3.362,1.57-6.999,2.442-10.884c1.019-3.853,2.236-7.918,3.452-12.216c1.421-4.238,2.987-8.677,4.684-13.273
				c3.766-9.053,8.068-18.806,13.92-28.39c0.709-1.209,1.424-2.427,2.143-3.651c0.365-0.608,0.709-1.233,1.097-1.835l1.2-1.781
				c1.607-2.382,3.234-4.793,4.881-7.229l1.24-1.828l1.352-1.762c0.902-1.176,1.812-2.358,2.724-3.546
				c0.912-1.188,1.829-2.38,2.75-3.578l1.384-1.801l1.489-1.726c3.994-4.595,7.946-9.36,12.398-13.755
				c2.198-2.221,4.304-4.564,6.612-6.717c2.308-2.151,4.625-4.313,6.953-6.484c1.174-1.072,2.31-2.197,3.521-3.233l3.656-3.1
				c2.44-2.066,4.89-4.141,7.343-6.219c2.501-2.015,5.071-3.951,7.607-5.934c2.565-1.943,5.045-4.011,7.687-5.854
				c5.234-3.717,10.499-7.525,15.685-11.146c5.198-3.685,10.483-7.25,15.515-10.994c5.067-3.711,10.134-7.34,15.026-11.101
				c4.924-3.714,9.789-7.382,14.492-11.101c2.362-1.845,4.705-3.674,7.026-5.485c2.298-1.842,4.572-3.666,6.824-5.471
				c2.249-1.81,4.475-3.597,6.672-5.364c2.177-1.793,4.326-3.564,6.447-5.313c4.26-3.479,8.349-6.926,12.297-10.268
				c3.971-3.318,7.746-6.594,11.383-9.727c14.529-12.551,26.38-23.311,34.597-30.925c8.217-7.615,12.801-12.087,12.801-12.087
				s-4.473,4.582-12.504,12.399c-8.031,7.816-19.619,18.869-33.853,31.786c-3.563,3.224-7.264,6.595-11.154,10.015
				c-3.872,3.442-7.882,6.994-12.062,10.582c-2.081,1.804-4.191,3.632-6.327,5.48c-2.158,1.824-4.344,3.671-6.553,5.537
				c-2.212,1.864-4.447,3.748-6.705,5.648c-2.281,1.873-4.585,3.766-6.906,5.671c-4.623,3.845-9.412,7.642-14.261,11.488
				c-4.812,3.888-9.82,7.667-14.831,11.526c-4.989,3.905-10.151,7.575-15.27,11.393c-5.184,3.812-10.2,7.638-15.315,11.458
				c-2.565,1.885-4.961,3.985-7.445,5.964c-2.454,2.019-4.943,3.988-7.357,6.033c-2.363,2.104-4.721,4.202-7.072,6.296l-3.52,3.132
				c-1.166,1.049-2.25,2.179-3.375,3.26c-2.229,2.182-4.449,4.355-6.658,6.52c-2.209,2.161-4.205,4.501-6.299,6.721
				c-4.246,4.396-7.972,9.132-11.746,13.688l-1.405,1.71l-1.298,1.779c-0.863,1.183-1.723,2.359-2.578,3.532
				c-0.854,1.172-1.707,2.338-2.554,3.497l-1.268,1.734l-1.153,1.796c-1.529,2.391-3.042,4.755-4.537,7.091l-1.117,1.744
				c-0.358,0.588-0.673,1.199-1.01,1.794c-0.662,1.196-1.32,2.385-1.976,3.565c-5.405,9.352-9.289,18.809-12.688,27.557
				c-1.513,4.448-2.909,8.732-4.174,12.819c-1.059,4.153-2.133,8.071-3.021,11.783c-0.744,3.75-1.44,7.258-2.086,10.502
				c-0.572,3.244-0.92,6.232-1.331,8.925c-0.193,1.347-0.378,2.62-0.55,3.818c-0.168,1.203-0.238,2.396-0.351,3.471
				c-0.2,2.167-0.372,4.01-0.512,5.504c-0.276,2.989-0.426,4.583-0.426,4.583L536.153,1132.43z"/>
			<path fill="#105453" d="M551.189,807.292c0,0-0.547,1.274-1.569,3.663c-1.003,2.396-2.566,5.875-4.389,10.368
				c-0.834,2.273-1.757,4.793-2.763,7.534c-0.502,1.369-1.024,2.795-1.565,4.272c-0.561,1.472-0.98,3.056-1.502,4.658
				c-1.002,3.22-2.067,6.646-3.19,10.258c-0.96,3.658-1.97,7.504-3.021,11.519c-1.943,8.063-3.89,16.84-5.448,26.214
				c-0.905,4.663-1.521,9.508-2.226,14.442c-0.771,4.927-1.242,10.003-1.81,15.15c-1.093,10.301-1.778,20.987-2.252,31.849
				c-0.231,5.433-0.279,10.915-0.43,16.411c0.02,5.503-0.035,11.024,0.063,16.545c0.226,11.042,0.603,22.079,1.351,32.925
				c0.647,10.85,1.657,21.503,2.705,31.796c1.131,10.288,2.347,20.219,3.721,29.604c1.311,9.393,2.804,18.235,4.209,26.388
				c1.449,8.146,2.863,15.595,4.225,22.172c1.33,6.585,2.62,12.292,3.686,16.987c1.09,4.688,1.979,8.359,2.614,10.843
				c0.639,2.456,0.979,3.767,0.979,3.767l-9.724,2.514c0,0-0.317-1.383-0.914-3.975c-0.58-2.57-1.38-6.33-2.351-11.121
				c-0.946-4.794-2.088-10.613-3.244-17.311c-1.188-6.69-2.405-14.258-3.636-22.522c-1.186-8.272-2.438-17.237-3.494-26.752
				c-1.117-9.506-2.061-19.558-2.906-29.96c-0.762-10.411-1.475-21.176-1.817-32.13c-0.445-10.948-0.513-22.085-0.423-33.214
				c0.061-5.563,0.271-11.129,0.409-16.668c0.309-5.535,0.514-11.053,0.901-16.516c0.785-10.926,1.781-21.662,3.174-31.999
				c0.717-5.165,1.336-10.254,2.251-15.19c0.852-4.946,1.606-9.795,2.65-14.463c1.835-9.377,4.039-18.145,6.22-26.185
				c1.171-3.998,2.293-7.829,3.361-11.474c1.229-3.592,2.396-6.999,3.49-10.2c0.569-1.593,1.034-3.163,1.639-4.627
				c0.586-1.469,1.15-2.885,1.693-4.245c1.086-2.718,2.082-5.215,2.981-7.47c1.948-4.44,3.609-7.873,4.681-10.24
				C550.607,808.551,551.189,807.292,551.189,807.292z"/>
			<path fill="#DDE6EF" d="M389.074,1108.568c0,207.268,23.083,303.651,69.51,364.21c5.276,6.883,13.427,10.95,22.1,10.95h58.521
				c8.673,0,16.823-4.067,22.1-10.95c46.427-60.559,69.511-156.942,69.511-364.21H389.074z"/>
			<path fill="#CCCCCC" d="M389.074,1108.568c0,207.268,23.083,303.651,69.51,364.21c5.276,6.883,13.427,10.95,22.1,10.95h58.521
				c8.673,0,16.823-4.067,22.1-10.95c5.14-6.703,9.99-13.849,14.559-21.531c-35.496-43.185-89.851-137.683-146.938-342.679H389.074z
				"/>
			<path fill="#105453" d="M96.884,1068.398c-74.602,57.386-84.645,119.075-84.645,119.075
				C53.845,1149.217,96.884,1068.398,96.884,1068.398z"/>
			<path fill="#146967" d="M643.964,678.174c-74.603,57.387-84.645,119.076-84.645,119.076
				C600.924,758.992,643.964,678.174,643.964,678.174z"/>
			<path fill="#105453" d="M144.706,1041.618c-37.301,22.954-34.91,65.516-45.909,83.21c13.868-1.436,24.39-16.738,28.692-43.04
				C131.794,1055.486,144.706,1041.618,144.706,1041.618z"/>
			<path fill="#105453" d="M207.353,1011.013c-32.998,46.865-27.259,60.733-25.824,92.296s0.479,35.389,0.479,35.389
				c17.693-27.736,23.432-55.475,20.563-81.297C199.702,1031.577,207.353,1011.013,207.353,1011.013z"/>
			<path fill="#0E4A49" d="M254.218,998.579c-30.129,22.954-27.259,27.258-34.432,64.081c-7.174,36.822-9.564,44.474-9.564,44.474
				c15.781-18.172,27.258-42.562,31.563-63.603C246.087,1022.489,254.218,998.579,254.218,998.579z"/>
			<path fill="#105453" d="M525.992,939.153c37.639,4.232,38.54-0.86,69.173-22.516c30.635-21.653,37.649-25.531,37.649-25.531
				c-23.965,2.227-49.114,11.921-66.769,24.152C548.393,927.491,525.992,939.153,525.992,939.153z"/>
			<path fill="#0B3B3A" d="M325.472,991.884c-36.823,9.086-36.823-8.13-52.604,35.388c-15.781,43.519-33.476,73.646-33.476,73.646
				c23.911-15.303,47.343-35.866,56.907-64.081S325.472,991.884,325.472,991.884z"/>
			<path fill="#0B3B3A" d="M359.903,1007.665c-42.084,21.52-48.778,68.863-64.081,83.688
				C333.122,1082.745,359.903,1007.665,359.903,1007.665z"/>
			<path fill="#0B3B3A" d="M401.029,1034.445c-48.778,10.999-66.95,53.56-66.95,53.56
				C360.859,1086.57,401.029,1034.445,401.029,1034.445z"/>
			<path fill="#0B3B3A" d="M428.288,1065.051c-30.128,16.737-32.997,32.52-32.997,32.52
				C429.723,1081.788,428.288,1065.051,428.288,1065.051z"/>
			<path fill="#0B3B3A" d="M428.767,1042.574c-2.87-43.519-35.866-79.385-35.866-79.385
				C396.727,1000.97,428.767,1042.574,428.767,1042.574z"/>
			<path fill="#0B3B3A" d="M385.727,1001.926c0,0-52.277-58.896-55.563-85.254C299.169,958.408,385.727,1001.926,385.727,1001.926z"
				/>
			<path fill="#0E4A49" d="M309.69,980.885c-23.434-26.779-92.296-38.257-126.25-50.213
				C214.047,967.017,277.171,981.363,309.69,980.885z"/>
			<path fill="#105453" d="M222.177,992.362c-33.475-14.825-95.165-1.436-121.467-8.608
				C143.749,1010.056,172.442,1007.665,222.177,992.362z"/>
			<path fill="#105453" d="M535.523,886.652c35.866-7.347,78.346-54.042,103.931-63.458
				C589.139,826.74,567.155,845.334,535.523,886.652z"/>
			<path fill="#105453" d="M150.444,1027.75c-38.735-11.955-55.951,2.391-107.599,10.043
				C95.928,1056.921,150.444,1027.75,150.444,1027.75z"/>
			<path fill="#105453" d="M530.091,838.961c12.686-38.503-1.334-55.986-8.01-107.769
				C501.954,783.904,530.091,838.961,530.091,838.961z"/>
			<path fill="#146967" d="M258.521,837.24c-29.769-23.492-91.638-29.589-91.638-29.589
				C204.005,851.229,258.521,837.24,258.521,837.24z"/>
			<path fill="#125E5D" d="M280.997,850.332c-45.908-8.13-61.689,17.216-75.559,30.127
				C247.522,880.938,271.911,850.811,280.997,850.332z"/>
			<path fill="#125E5D" d="M287.692,842.202c-18.65-29.171-21.998-31.084-30.605-54.995
				C250.392,817.335,272.39,831.682,287.692,842.202z"/>
			<path fill="#105453" d="M324.515,874.721c-35.866-9.086-50.213,15.781-79.384,20.563
				C310.646,897.197,324.515,874.721,324.515,874.721z"/>
			<path fill="#105453" d="M334.558,867.548c-34.91-23.911-26.779-20.085-37.301-48.3c-10.521-28.215-12.434-30.606-12.434-30.606
				C318.776,824.03,334.558,867.548,334.558,867.548z"/>
			<path fill="#105453" d="M361.815,904.37c-38.735-10.999-72.211,3.826-72.211,3.826
				C333.601,918.717,361.815,904.37,361.815,904.37z"/>
			<path fill="#105453" d="M393.378,914.413c-26.779-21.521-28.215-46.388-33.953-65.038c-5.737-18.65-10.521-29.649-10.521-29.649
				C384.292,857.983,393.378,914.413,393.378,914.413z"/>
			<path fill="#0B3B3A" d="M407.725,932.106c-10.998-39.691,0-57.387-0.479-76.516C423.027,906.283,407.725,932.106,407.725,932.106
				z"/>
			<path fill="#0B3B3A" d="M427.365,967.495c-0.184-0.601-0.356-1.196-0.522-1.79c-9.117-32.749,7.49-58.063,7.49-58.466
				C442.531,940.031,427.365,967.495,427.365,967.495z"/>
			<path fill="#146967" d="M241.784,574.401c-22.477-47.822-74.124-73.167-74.124-73.167
				C180.094,558.142,241.784,574.401,241.784,574.401z"/>
			<path fill="#146967" d="M251.524,587.77c-81.473-38.714-146.511-4.281-146.511-4.281
				C199.7,600.703,187.142,581.053,251.524,587.77z"/>
			<path fill="#146967" d="M293.909,633.7c-28.215-29.649-69.342-17.694-105.207-10.043
				C233.653,636.091,288.171,630.354,293.909,633.7z"/>
			<path fill="#146967" d="M328.341,651.394c-43.039-53.081-45.909-69.818-55.473-104.251
				C321.646,584.922,328.341,651.394,328.341,651.394z"/>
			<path fill="#125E5D" d="M355.599,691.564c-15.78-52.126-14.823-43.996-11.477-78.906c3.348-34.909-1.437-59.299-1.437-59.299
				c37.779,59.776,33.477,78.905,26.304,106.164c-7.174,27.259-4.782,45.908-4.782,45.908L355.599,691.564z"/>
			<path fill="#125E5D" d="M353.688,712.127c-47.345-55.473-124.814-51.646-124.814-51.646
				C289.127,708.78,353.688,712.127,353.688,712.127z"/>
			<path fill="#105453" d="M393.753,755.566c32.037-46.561,13.646-103.787,13.646-103.787
				C383.319,706.567,393.753,755.566,393.753,755.566z"/>
			<path fill="#105453" d="M435.357,839.732c32.037-46.561,13.646-103.787,13.646-103.787
				C424.924,790.733,435.357,839.732,435.357,839.732z"/>
			<path fill="#125E5D" d="M372.814,745.604c-21.041-31.084-72.21-7.651-105.208-20.086
				C298.213,758.515,363.251,740.342,372.814,745.604z"/>
			<path fill="#105453" d="M393.378,778.121c-31.563-17.693-48.3-0.956-76.992-8.607
				C358.468,794.381,387.161,773.339,393.378,778.121z"/>
			<path fill="#0B3B3A" d="M479.722,817.595c-21.131,29.372-6.382,47.886-17.211,75.536
				C491.952,854.111,474.271,823.234,479.722,817.595z"/>
			<path fill="#146967" d="M800.818,826.899c24.867-59.3,55.473-64.081,83.21-83.21
				C847.684,823.073,800.818,826.899,800.818,826.899z"/>
			<path fill="#146967" d="M751.083,863.244c21.042-26.78,19.129-52.604,28.693-80.341c9.563-27.737,16.26-38.257,16.26-38.257
				C718.564,809.684,751.083,863.244,751.083,863.244z"/>
			<path fill="#146967" d="M705.175,904.37c27.736-33.476,24.867-59.299,30.605-90.86c5.739-31.563,16.26-52.604,16.26-52.604
				C688.915,819.248,709.013,892.42,705.175,904.37z"/>
			<path fill="#105453" d="M656.396,933.063c37.302-50.69,35.388-109.032,35.388-109.032
				C652.571,900.545,656.396,933.063,656.396,933.063z"/>
			<path fill="#105453" d="M731.955,914.891c58.343-35.388,109.033-35.388,109.033-35.388
				C802.73,914.891,731.955,914.891,731.955,914.891z"/>
			<path fill="#105453" d="M647.789,968.451c66.95-31.563,72.688-22.954,116.685-17.216c43.997,5.737,70.775,0,70.775,0
				c-65.037,40.17-93.729,25.822-128.161,21.042C672.656,967.495,647.789,968.451,647.789,968.451z"/>
			<path fill="#0B3B3A" d="M616.227,1008.621c58.344-19.129,130.075-0.956,127.206-0.956
				C657.354,1043.053,616.227,1008.621,616.227,1008.621z"/>
			<path fill="#0B3B3A" d="M582.751,1044.966c78.428-0.956,105.208,26.78,105.208,26.78
				C633.442,1084.18,582.751,1044.966,582.751,1044.966z"/>
		</g>
		<rect x="1481.26" y="1015.552" fill="#0D3245" width="296.717" height="468.237"/>
		<rect x="1620.002" y="1015.552" fill="#144B69" width="157.975" height="468.237"/>
		<g>
			<g>
				<path fill="#0D3245" d="M1680.348,1142.73h38.604c-0.855-23.482-17.652-42.36-38.604-43.435V1142.73z"/>
				<path fill="#0D3245" d="M1676.581,1142.73v-43.435c-20.95,1.073-37.746,19.951-38.603,43.435H1676.581z"/>
				<path fill="#0D3245" d="M1680.348,1146.497v43.435c20.95-1.072,37.746-19.951,38.604-43.435H1680.348z"/>
				<path fill="#0D3245" d="M1676.581,1146.497h-38.603c0.855,23.483,17.651,42.36,38.603,43.435V1146.497z"/>
			</g>
		</g>
		<g>
			<g>
				<path fill="#18597D" d="M1676.581,1142.73v-38.012c-18.276,1.063-32.911,17.521-33.761,38.012H1676.581z"/>
				<path fill="#18597D" d="M1680.348,1142.73h33.762c-0.851-20.489-15.484-36.947-33.762-38.012V1142.73z"/>
				<path fill="#18597D" d="M1680.348,1146.497v38.012c18.276-1.063,32.911-17.521,33.762-38.012H1680.348z"/>
				<path fill="#18597D" d="M1676.581,1146.497h-33.761c0.85,20.49,15.484,36.947,33.761,38.012V1146.497z"/>
			</g>
		</g>
		<g>
			<path fill="#0D3245" d="M1680.348,1142.73h27.116c-0.836-16.386-12.507-29.517-27.116-30.563V1142.73z"/>
			<path fill="#0D3245" d="M1676.581,1142.73v-30.563c-14.61,1.048-26.28,14.179-27.116,30.563H1676.581z"/>
			<path fill="#0D3245" d="M1676.581,1146.497h-27.116c0.836,16.386,12.506,29.517,27.116,30.563V1146.497z"/>
			<path fill="#0D3245" d="M1680.348,1146.497v30.563c14.609-1.048,26.28-14.179,27.116-30.563H1680.348z"/>
		</g>
		<g>
			<path fill="#18597D" d="M1676.581,1142.73v-22.303c-10.545,1.019-18.918,10.469-19.731,22.303H1676.581z"/>
			<path fill="#18597D" d="M1680.348,1142.73h19.73c-0.813-11.834-9.186-21.284-19.73-22.303V1142.73z"/>
			<path fill="#18597D" d="M1676.581,1146.497h-19.731c0.813,11.835,9.188,21.285,19.731,22.302V1146.497z"/>
			<path fill="#18597D" d="M1680.348,1146.497v22.302c10.545-1.017,18.918-10.467,19.73-22.302H1680.348z"/>
		</g>
		<ellipse fill="#0D3245" cx="1678.464" cy="1144.614" rx="11.478" ry="12.849"/>
		<rect x="1633.393" y="1211.863" fill="#0D3245" width="98.034" height="145.854"/>
		<rect x="1638.414" y="1222.384" fill="#18597D" width="87.99" height="11.956"/>
		<rect x="1638.414" y="1252.512" fill="#18597D" width="87.99" height="11.955"/>
		<rect x="1638.414" y="1282.64" fill="#18597D" width="87.99" height="11.955"/>
		<rect x="1638.414" y="1312.767" fill="#18597D" width="87.99" height="11.956"/>
		<rect x="1706.081" y="1035.88" fill="#0D3245" width="54.038" height="55.474"/>
		<ellipse fill="#144B69" cx="1716.124" cy="1046.4" rx="2.392" ry="3.348"/>
		<ellipse fill="#144B69" cx="1731.905" cy="1046.4" rx="2.391" ry="3.348"/>
		<ellipse fill="#144B69" cx="1746.251" cy="1046.4" rx="2.392" ry="3.348"/>
		<ellipse fill="#144B69" cx="1716.124" cy="1062.182" rx="2.392" ry="3.348"/>
		<ellipse fill="#144B69" cx="1731.905" cy="1062.182" rx="2.391" ry="3.348"/>
		<path fill="#2B407A" d="M1771.238,1070.789h-20.803c-4.424,0-8.011-3.586-8.011-8.01l0,0c0-4.424,3.587-8.011,8.011-8.011h20.803
			c4.424,0,8.01,3.587,8.01,8.011l0,0C1779.248,1067.203,1775.662,1070.789,1771.238,1070.789z"/>
		<path fill="#2B407A" d="M1563.334,570.336h-20.803c-4.424,0-8.01-3.586-8.01-8.01l0,0c0-4.424,3.586-8.01,8.01-8.01h20.803
			c4.424,0,8.01,3.586,8.01,8.01l0,0C1571.344,566.75,1567.758,570.336,1563.334,570.336z"/>
		<path fill="#2B407A" d="M1741.35,1086.332h-20.803c-4.424,0-8.01-3.587-8.01-8.011l0,0c0-4.424,3.586-8.011,8.01-8.011h20.803
			c4.424,0,8.01,3.587,8.01,8.011l0,0C1749.359,1082.745,1745.773,1086.332,1741.35,1086.332z"/>
		<path fill="#3D5BAD" d="M1779.245,1063.392c-0.277,0-0.556-0.005-0.834-0.018c-1.583-0.065-2.813-1.402-2.747-2.986
			c0.066-1.583,1.396-2.814,2.986-2.745c3.76,0.148,7.313-1.189,10.022-3.791c2.71-2.601,4.203-6.101,4.203-9.856V921.975
			c0-37.131-30.207-67.339-67.338-67.339c-40.295,0-73.078-32.782-73.078-73.077V662.634c0-29.108-11.336-56.476-31.918-77.06
			c-13.144-13.143-30.614-20.379-49.199-20.379c-1.584,0-2.868-1.284-2.868-2.869s1.284-2.869,2.868-2.869
			c20.117,0,39.031,7.834,53.257,22.06c21.668,21.667,33.6,50.476,33.6,81.117v118.925c0,37.131,30.209,67.339,67.34,67.339
			c40.294,0,73.077,32.782,73.077,73.077v122.021c0,5.335-2.12,10.307-5.97,13.999
			C1788.998,1061.492,1784.266,1063.392,1779.245,1063.392z"/>
		<path fill="#3D5BAD" d="M1750.436,1079.876h-1.076c-1.584,0-2.868-1.285-2.868-2.87c0-1.584,1.284-2.869,2.868-2.869h1.076
			c11.537,0,20.922-9.385,20.922-20.922v-16.259c0-47.135-38.347-85.481-85.48-85.481c-50.298,0-91.219-40.921-91.219-91.22v-70.718
			c0-81.002-25.233-158.406-72.975-223.848c-0.935-1.279-0.653-3.074,0.627-4.009c1.277-0.933,3.073-0.652,4.009,0.627
			c48.462,66.429,74.077,145.003,74.077,227.229v70.718c0,47.135,38.347,85.481,85.479,85.481c50.3,0,91.222,40.921,91.222,91.22
			v16.259C1777.098,1067.916,1765.137,1079.876,1750.436,1079.876z"/>
		<path fill="#2B407A" d="M1515.99,572.01h-20.803c-4.424,0-8.011-3.586-8.011-8.01l0,0c0-4.424,3.587-8.01,8.011-8.01h20.803
			c4.424,0,8.01,3.586,8.01,8.01l0,0C1524,568.424,1520.414,572.01,1515.99,572.01z"/>
	</g>
</g>
</svg>
