<?xml version="1.0" encoding="utf-8"?>
<!-- Generator: Adobe Illustrator 16.0.0, SVG Export Plug-In . SVG Version: 6.00 Build 0)  -->
<!DOCTYPE svg PUBLIC "-//W3C//DTD SVG 1.1//EN" "http://www.w3.org/Graphics/SVG/1.1/DTD/svg11.dtd">
<svg version="1.1" id="Layer_1" xmlns="http://www.w3.org/2000/svg" xmlns:xlink="http://www.w3.org/1999/xlink" x="0px" y="0px"
	 width="757px" height="924px" viewBox="0 0 757 924" enable-background="new 0 0 757 924" xml:space="preserve">
<rect x="90" y="-5" fill="#EEF5FF" width="667" height="924"/>
<g opacity="0.5">
	<path fill="#010101" d="M590.641,337.083v64.333h112.422v-64.333H590.641z M660.35,395.981h-27.012v-9.629h27.012V395.981z"/>
	<path fill="#9CC4E8" d="M590.641,426.08v64.333h112.422V426.08H590.641z M660.35,484.979h-27.012v-9.63h27.012V484.979z
		 M590.641,426.08v64.333h112.422V426.08H590.641z M660.35,484.979h-27.012v-9.63h27.012V484.979z M590.641,426.08v64.333h112.422
		V426.08H590.641z M660.35,484.979h-27.012v-9.63h27.012V484.979z M590.641,515.077v64.332h112.422v-64.332H590.641z
		 M660.35,573.976h-27.012v-9.63h27.012V573.976z M590.641,426.08v64.333h112.422V426.08H590.641z M660.35,484.979h-27.012v-9.63
		h27.012V484.979z M590.641,515.077v64.332h112.422v-64.332H590.641z M660.35,573.976h-27.012v-9.63h27.012V573.976z
		 M590.641,426.08v64.333h112.422V426.08H590.641z M660.35,484.979h-27.012v-9.63h27.012V484.979z M590.641,515.077v64.332h112.422
		v-64.332H590.641z M660.35,573.976h-27.012v-9.63h27.012V573.976z M590.641,604.075v64.332h112.422v-64.332H590.641
		L590.641,604.075z M660.35,662.972h-27.012v-9.629h27.012V662.972z M590.641,426.08v64.333h112.422V426.08H590.641z
		 M660.35,484.979h-27.012v-9.63h27.012V484.979z M590.641,515.077v64.332h112.422v-64.332H590.641z M660.35,573.976h-27.012v-9.63
		h27.012V573.976z M590.641,604.075v64.332h112.422v-64.332H590.641L590.641,604.075z M660.35,662.972h-27.012v-9.629h27.012
		V662.972z M572.077,316.598v371.805h149.534V316.598H572.077z M708.97,674.315H584.733v-76.148H708.97V674.315z M708.97,585.318
		H584.733V509.17H708.97V585.318z M708.97,496.32H584.733v-76.148H708.97V496.32z M708.97,407.323H584.733v-76.147H708.97V407.323z
		 M703.063,604.075H590.641v64.332h112.422V604.075z M660.35,662.972h-27.012v-9.629h27.012V662.972z M703.063,515.077H590.641
		v64.332h112.422V515.077z M660.35,573.976h-27.012v-9.63h27.012V573.976z M703.063,426.08H590.641v64.333h112.422V426.08z
		 M660.35,484.979h-27.012v-9.63h27.012V484.979z M590.641,515.077v64.332h112.422v-64.332H590.641z M660.35,573.976h-27.012v-9.63
		h27.012V573.976z M590.641,426.08v64.333h112.422V426.08H590.641z M660.35,484.979h-27.012v-9.63h27.012V484.979z M590.641,515.077
		v64.332h112.422v-64.332H590.641z M660.35,573.976h-27.012v-9.63h27.012V573.976z M590.641,426.08v64.333h112.422V426.08H590.641z
		 M660.35,484.979h-27.012v-9.63h27.012V484.979z M590.641,426.08v64.333h112.422V426.08H590.641z M660.35,484.979h-27.012v-9.63
		h27.012V484.979z M590.641,426.08v64.333h112.422V426.08H590.641z M660.35,484.979h-27.012v-9.63h27.012V484.979z"/>
	<g>
		<g>
			<path fill="#9CC4E8" d="M590.641,337.083v64.333h112.422v-64.333H590.641z M660.35,395.981h-27.012v-9.629h27.012V395.981z"/>
		</g>
	</g>
	<g>
		<g>
			<path fill="#9CC4E8" d="M590.641,426.08v64.333h112.422V426.08H590.641z M660.35,484.979h-27.012v-9.63h27.012V484.979z"/>
		</g>
	</g>
	<g>
		<g>
			<path fill="#9CC4E8" d="M590.641,515.077v64.332h112.422v-64.332H590.641z M660.35,573.976h-27.012v-9.63h27.012V573.976z"/>
		</g>
	</g>
	<g>
		<path fill="#9CC4E8" d="M590.641,604.075v64.332h112.422v-64.332H590.641L590.641,604.075z M660.35,662.972h-27.012v-9.629h27.012
			V662.972z"/>
	</g>
</g>
<g opacity="0.3">
	<g>
		<rect x="287.562" y="237" fill="#9CC4E8" width="99.646" height="99.646"/>
		<rect x="396.938" y="237" fill="#9CC4E8" width="99.646" height="99.646"/>
		<rect x="287.562" y="344.726" fill="#9CC4E8" width="99.646" height="99.646"/>
		<rect x="396.938" y="344.726" fill="#9CC4E8" width="99.646" height="99.646"/>
	</g>
</g>
<g>
	<g>
		<g>
			<path fill="#C3D7EF" d="M202.146,331.923h-59.143c-2.716,0-4.938-2.222-4.938-4.937v-57.083c0-2.715,2.222-4.937,4.938-4.937
				h59.143c2.715,0,4.937,2.222,4.937,4.937v57.083C207.083,329.701,204.861,331.923,202.146,331.923z"/>
		</g>
		<g>
			<path fill="#E0EAF7" d="M199.585,329.021h-54.02c-2.479,0-4.509-2.028-4.509-4.508v-52.138c0-2.48,2.029-4.509,4.509-4.509h54.02
				c2.479,0,4.509,2.029,4.509,4.509v52.138C204.094,326.993,202.064,329.021,199.585,329.021z"/>
		</g>
		<g>
			<g>
				<g>
					<circle fill="#B9D3EE" cx="172.575" cy="273.978" r="1.429"/>
				</g>
				<g>
					<circle fill="#B9D3EE" cx="183.931" cy="276.692" r="1.43"/>
				</g>
				<g>
					<circle fill="#B9D3EE" cx="193.34" cy="285.052" r="1.43"/>
				</g>
				<g>
					<circle fill="#B9D3EE" cx="197.46" cy="297.432" r="1.429"/>
				</g>
				<g>
					<circle fill="#B9D3EE" cx="193.95" cy="311.117" r="1.43"/>
				</g>
				<g>
					<circle fill="#B9D3EE" cx="184.972" cy="320.119" r="1.43"/>
				</g>
				<g>
					<circle fill="#B9D3EE" cx="172.575" cy="323.747" r="1.429"/>
				</g>
			</g>
			<g>
				<g>
					<circle fill="#B9D3EE" cx="161.173" cy="276.692" r="1.43"/>
				</g>
				<g>
					<circle fill="#B9D3EE" cx="151.765" cy="285.052" r="1.43"/>
				</g>
				<g>
					<circle fill="#B9D3EE" cx="147.645" cy="297.432" r="1.429"/>
				</g>
				<g>
					<circle fill="#B9D3EE" cx="151.155" cy="311.117" r="1.43"/>
				</g>
				<g>
					<circle fill="#B9D3EE" cx="160.133" cy="320.119" r="1.43"/>
				</g>
			</g>
		</g>
		<g>
			<g>
				<circle fill="#B9D3EE" cx="173.619" cy="297.433" r="1.429"/>
			</g>
			<g>
				<g>
					<rect x="173.424" y="279.572" fill="#B9D3EE" width="0.39" height="17.86"/>
				</g>
			</g>
			<g>
				<g>
					
						<rect x="177.61" y="287.677" transform="matrix(-0.6177 -0.7864 0.7864 -0.6177 57.2829 615.2405)" fill="#B9D3EE" width="1.172" height="12.038"/>
				</g>
			</g>
		</g>
	</g>
	<g>
		<path fill="#2F3652" d="M755.569,886.192H1.43c-0.787,0-1.43-0.625-1.43-1.39v-2.645c0-0.766,0.643-1.389,1.43-1.389h754.139
			c0.786,0,1.431,0.623,1.431,1.389v2.645C757,885.567,756.355,886.192,755.569,886.192z"/>
	</g>
	<g>
		<g>
			<g>
				<path fill="#B2C1E3" d="M77.105,811.488c0,0,11.117-12.971,0.686-21.208c0,0-7.62-4.612-13.833-4.238
					c0,0,8.803,14.762,5.956,16.229c-2.848,1.469-8.623-17.154-8.623-17.154s-17.339-1.683-22.917,1c0,0,14.822,12.13,11.701,12.852
					c-3.122,0.724-19.132-11.184-19.132-11.184s-16.138,2.746-15.277,12.592c0.86,9.844,6.421,12.882,8.865,12.621
					c2.444-0.262,16.74-5.718,17.051-3.717c0.311,2.004-8.294,8.546-14.32,8.854c0,0,11.377,12.547,18.938,8.926
					c7.562-3.622,8.208-9.36,12.92-11.515c4.714-2.152,8.737-2.147,6.792,0.048c-1.946,2.196-10.476,4.33-13.172,9.098
					c-2.695,4.769-5.113,7.984,2.709,6.809c7.823-1.178,20.54-6.902,21.097-13.457C77.105,811.488,77.105,811.488,77.105,811.488z"
					/>
			</g>
			<g>
				<g>
					<path fill="#B2C1E3" d="M23.596,800.642c0,0,43.83-1.688,53.509,10.848c0,0,2.141,6.41,8.728,12.248l1.026,2.798
						c0,0-7.595-8.008-10.313-8.492C76.547,818.042,80.798,802.513,23.596,800.642z"/>
				</g>
				<g>
					<path fill="#B2C1E3" d="M85.833,823.736c0,0,9.408,6.957,10.062,19.389l-1.708,0.153c0,0-3.005-12.854-8.436-17.881
						S85.833,823.736,85.833,823.736z"/>
				</g>
			</g>
		</g>
		<g>
			<g>
				<path fill="#D4E3F5" d="M115.973,795.179c0,0-17.684-9.903-9.431-23.344c0,0,6.601-8.251,13.674-10.373
					c0,0-3.772,20.041,0,20.512c3.773,0.473,2.594-22.634,2.594-22.634s18.626-8.96,25.936-8.253c0,0-11.554,19.57-7.781,19.1
					c3.773-0.473,16.74-20.276,16.74-20.276s19.098-3.537,22.163,7.78c3.065,11.316-1.886,16.976-4.715,17.683
					c-2.83,0.707-20.984,0.472-20.513,2.829c0.472,2.358,12.732,6.131,19.57,4.009c0,0-7.545,18.626-17.447,17.685
					c-9.903-0.943-12.969-7.073-19.099-7.546c-6.13-0.472-10.61,1.179-7.544,2.83c3.065,1.65,13.439,0.54,18.39,4.749
					c4.952,4.21,8.96,6.804-0.235,8.689c-9.196,1.886-25.7,0.708-29-6.366C115.973,795.179,115.973,795.179,115.973,795.179z"/>
			</g>
			<g>
				<g>
					<path fill="#D4E3F5" d="M171.144,761.226c0,0-49.512,16.033-55.171,33.953c0,0,0.236,8.017-4.716,17.21v3.538
						c0,0,5.187-12.024,8.017-13.676C119.273,802.251,108.192,786.689,171.144,761.226z"/>
				</g>
				<g>
					<path fill="#D4E3F5" d="M111.257,812.389c0,0-7.636,11.597-3.283,25.71l1.965-0.526c0,0-1.907-15.546,2.088-23.365
						C116.021,806.387,111.257,812.389,111.257,812.389z"/>
				</g>
			</g>
		</g>
		<g>
			<g>
				<path fill="#D4DFF2" d="M87.84,781.521c0,0,23.31-13.055,12.432-30.77c0,0-8.703-10.878-18.026-13.676
					c0,0,4.973,26.418,0,27.039c-4.973,0.622-3.419-29.836-3.419-29.836s-24.554-11.812-34.188-10.878
					c0,0,15.229,25.796,10.256,25.176c-4.973-0.622-22.067-26.729-22.067-26.729s-25.174-4.662-29.215,10.256
					c-4.04,14.919,2.487,22.378,6.217,23.311c3.729,0.933,27.66,0.622,27.039,3.729c-0.622,3.107-16.783,8.08-25.796,5.282
					c0,0,9.945,24.555,22.999,23.312c13.054-1.243,17.094-9.323,25.174-9.946c8.081-0.622,13.986,1.555,9.947,3.729
					c-4.041,2.176-17.716,0.714-24.243,6.262c-6.527,5.55-11.811,8.969,0.311,11.455c12.121,2.485,33.877,0.933,38.228-8.394
					C87.84,781.521,87.84,781.521,87.84,781.521z"/>
			</g>
			<g>
				<g>
					<path fill="#D4DFF2" d="M15.113,736.765c0,0,65.268,21.137,72.727,44.757c0,0-0.311,10.566,6.216,22.688v4.663
						c0,0-6.837-15.851-10.567-18.027C83.488,790.844,98.096,770.332,15.113,736.765z"/>
				</g>
				<g>
					<path fill="#D4DFF2" d="M94.056,804.208c0,0,10.065,15.286,4.327,33.891l-2.589-0.694c0,0,2.513-20.493-2.753-30.799
						C87.774,796.297,94.056,804.208,94.056,804.208z"/>
				</g>
			</g>
		</g>
		<g>
			<path fill="#B2C1E3" d="M88.625,878.447c-25.217,0-45.66-20.443-45.66-45.661h91.32
				C134.285,858.004,113.843,878.447,88.625,878.447z"/>
		</g>
		<g>
			<path fill="#B2C1E3" d="M42.334,880.771h92.582l0,0c0-3.111-2.522-5.634-5.634-5.634H47.968
				C44.856,875.138,42.334,877.659,42.334,880.771L42.334,880.771z"/>
		</g>
		<g>
			<rect x="41.926" y="832.786" fill="#D4DFF2" width="93.86" height="1.399"/>
		</g>
	</g>
	<g>
		<g>
			<g>
				<path fill="#F89748" d="M532.739,620.092l-0.401-0.042l21.149-209.542l0.401,0.042c7.26,0.76,12.539,7.371,11.794,14.767
					l-18.446,182.762C546.489,615.474,539.999,620.852,532.739,620.092z"/>
			</g>
		</g>
		<g>
			<g>
				<path fill="#F89748" d="M566.339,645.182h-21.201v-10.026h21.201c8.082,0,15.466-3.814,20.257-10.465
					c4.962-6.887,6.258-15.477,3.558-23.566l-29.279-87.718l9.511-3.175l29.28,87.717c3.678,11.021,1.834,23.211-4.933,32.603
					C588.032,639.849,577.684,645.182,566.339,645.182z"/>
			</g>
		</g>
		<g>
			<g>
				<path fill="#F89748" d="M550.229,542.244L550.229,542.244l5.632-55.787l0,0c8.867,0.929,15.319,9.006,14.406,18.04
					l-2.327,23.069C567.028,536.601,559.099,543.172,550.229,542.244z"/>
			</g>
		</g>
		<g>
			<g>
				<path fill="#F89748" d="M632.672,640.168h-89.797c-2.171,0-3.946-1.776-3.946-3.946v-0.072c0-2.173,1.775-3.948,3.946-3.948
					h89.797c2.172,0,3.948,1.775,3.948,3.948v0.072C636.62,638.392,634.844,640.168,632.672,640.168z"/>
			</g>
		</g>
	</g>
	<g>
		<g>
			<path fill="#2E3B65" d="M668.565,638.088H438.534h-26.501c-2.603,0-4.71,2.109-4.71,4.711l0,0c0,2.603,2.107,4.711,4.71,4.711
				h256.532c2.601,0,4.71-2.108,4.71-4.711l0,0C673.275,640.197,671.166,638.088,668.565,638.088z"/>
		</g>
		<g>
			<path fill="#2E3B65" d="M652.865,880.771h-3.44l-0.47-8.685l-12.552-232.296c-0.044-0.89,0.68-1.654,1.628-1.699
				c0.951-0.051,1.751,0.646,1.8,1.534l12.563,232.461L652.865,880.771z"/>
		</g>
		<g>
			<path fill="#2E3B65" d="M652.395,873.615l0.472,7.154h-81.774l0,0c0-3.951,3.204-7.154,7.155-7.154H652.395z"/>
		</g>
	</g>
	<g>
		<polygon fill="#2E3B65" points="438.534,632.2 497.267,625.734 497.267,638.27 438.534,638.27 		"/>
	</g>
	<g>
		<path fill="#183660" d="M557.336,880.785h-33.153c0,0-25.673,0-26.375-0.048c-4.208-0.326-3.461-20.436-3.039-27.917
			c0.095-1.73,0.188-2.761,0.188-2.761s0.419-0.606,1.122-1.494c3.133-3.741,11.784-12.533,16.74-1.264
			c0.843,1.916,1.965,3.741,3.32,5.424c1.637,2.151,3.646,4.115,5.846,5.893c8.043,6.641,18.704,10.803,25.158,11.973
			C556.729,872.366,557.336,880.785,557.336,880.785z"/>
	</g>
	<g>
		<path fill="#204673" d="M536.689,880.785h-33.154c0,0-25.673,0-26.376-0.048c-4.208-0.326-3.46-20.436-3.038-27.917
			c0.093-1.73,0.188-2.761,0.188-2.761s0.42-0.606,1.122-1.494c3.134-3.741,11.784-12.533,16.739-1.264
			c0.843,1.916,1.966,3.741,3.321,5.424c1.637,2.151,3.647,4.115,5.845,5.893c8.044,6.641,18.706,10.803,25.16,11.973
			C536.082,872.366,536.689,880.785,536.689,880.785z"/>
	</g>
	<g>
		<path fill="#183D6B" d="M515.946,850.622c0,0-2.06,1.216-6.548,2.104c-2.058,0.374-4.63,0.701-7.717,0.748
			c-5.377,0.142-9.397-0.14-12.018-0.42c-0.608-0.094-1.168-0.142-1.637-0.233c-1.685-0.234-2.525-0.467-2.525-0.467
			c-31.659-100.964-11.831-105.032-23.146-114.104c-8.745-7.015-32.875-9.446-32.875-9.446h-115.88
			c-3.554-6.732-5.144-22.96-5.752-31.894c-0.28-3.74-0.375-6.171-0.375-6.171s34.043-9.729,58.829-15.06
			c8.932-1.965,13.171,2.334,17.661,2.193l7.089,2.265c14.683,0.469,93.838,10.851,107.165,24.553
			c2.479,2.524,6.504,6.95,8.235,14.198C515.946,757.704,515.946,850.622,515.946,850.622z"/>
	</g>
	<g>
		<path fill="#1C478A" d="M502.018,856.281c0,0-7.451,3.215-17.536,3.215c-7.183,0-12.5-3.568-16.957-4.776
			c-31.658-100.962-3.091-107.397-14.405-116.47c-8.746-7.015-32.875-9.446-32.875-9.446h-115.88
			c-3.554-6.732-5.144-22.96-5.752-31.894c-0.28-3.74-0.374-6.171-0.374-6.171s34.043-9.729,58.829-15.06
			c8.931-1.965,16.647-3.367,21.137-3.507h1.262c14.685,0.467,98.157,17.909,111.484,31.611c2.478,2.524,7.025,7.69,6.266,15.104
			C491.126,778.29,502.018,856.281,502.018,856.281z"/>
	</g>
	<g>
		<path fill="#FAB17E" d="M345.015,521.621c9.586,4.334,11.516,15.212,11.516,15.212c-20.901,8.42-55.511-11.485-55.511-11.485
			s12.702-11.174,15.176-32.404c0.125-1.071,0.224-2.166,0.292-3.281c0.224-3.551,0.153-7.354-0.299-11.41l11.1,7.605l18.457,12.646
			c0,0,0.428,6.191-0.26,17.027C345.367,517.42,345.212,519.452,345.015,521.621z"/>
	</g>
	<g>
		<path fill="#919BCE" d="M372.066,633.582c-0.108,4.924,1.895,8.611,3.082,12.107c0.458,1.332,0.798,2.642,0.851,3.979
			c0.56,13.506,3.026,18.765,2.1,23.268c0,0-2.183-0.549-11.029,4.197c-3.851,2.059-8.489,4.334-13.872,6.606
			c-0.282,0.117-0.564,0.235-0.854,0.354c-20.857,8.668-43.428,12.886-49.874,13.552c-12.312,1.273-18.848-29.498-19.411-69.26
			c-0.878-61.94,4.843-92.774,27.318-117.45c1.416-1.555,0.941,3.165,9.966,6.152c8.339,2.752,17.922,2.399,25.049-0.188l6.552,5.17
			c13.843,16.626,17.855,37.982,19.221,56.044C372.89,600.948,372.386,619.414,372.066,633.582z"/>
	</g>
	<g>
		<path fill="#EE985E" d="M345.745,498.502c0,0,0.758-1.041,0.071,9.796c-18.994-2.905-26.174-11.45-29.425-17.313
			c-0.924-1.655,6.454-3.565,10.897-5.128L345.745,498.502z"/>
	</g>
	<g>
		<path fill="#FAB17E" d="M354.258,497.443c0,0-34.652,9.668-40.342-12.006c-5.688-21.673-13.992-35.021,7.893-42.109
			c21.885-7.09,28.372,0.048,32.029,6.82C357.496,456.92,363.125,494.369,354.258,497.443z"/>
	</g>
	<g>
		<path fill="#2E3B65" d="M297.439,446.961c-0.327-0.292-1.019-0.477-2.498-0.376c0,0,1.084-0.878,2.649-1.11
			c0.056-2.081,0.7-5.828,4.109-7.139c0,0-1.767,1.238-1.747,3.44c3.559-4.682,11.911-8.794,36.304-9.85
			c32.149-1.39,24.154,20.284,20.33,23.22c-3.824,2.935-15.017-2.456-22.622-0.904c-7.605,1.551-7.706,12.827-10.125,14.67
			s-1.725-0.977-5.445-2.138s-3.34,4.722-1.855,8.395c1.483,3.674-2.746,9.276-2.746,9.276s0,0-5.541-4.671
			c-5.542-4.673-12.891-26.435-11.25-31.468C297.148,447.865,297.291,447.414,297.439,446.961z"/>
	</g>
	<g>
		<path fill="#6C7DBD" d="M379.468,672.189c0,0-8.055,3.966-17.441,7.526c-40.635-29.645-37.486-100.791-37.708-101.992
			l51.033,44.939l1.684,25.949c0.282,1.382,0.45,2.723,0.329,4.058C376.168,666.134,380.97,667.844,379.468,672.189z"/>
	</g>
	<g>
		<g>
			<path fill="#FAB17E" d="M434.688,626.126c0,0,5.257-0.515,8.8-1.917c3.542-1.4,15.731-5.76,17.917-4.924
				c2.187,0.836,9.21,5.4,10.875,6.289c1.664,0.887,4.444,5.082,4.444,5.082c-1.336,1.19-5.576-1.997-7.556-2.064
				c-1.979-0.065-17.065,6.993-21.413,6.896c-4.349-0.098-12.056-0.729-12.056-0.729L434.688,626.126z"/>
		</g>
		<g>
			<path fill="#FAB17E" d="M463.121,627.162c0.023,0.24,4.952,6.472,9.104,4.852l-4.149-4.645L463.121,627.162z"/>
		</g>
		<g>
			<path fill="#FAB17E" d="M443.486,624.209c0,0,5.021-4.1,6.729-6.116c0,0,0.921,0.492,0.911,1.295
				c-0.02,1.345-1.479,3.72-1.479,3.72L443.486,624.209z"/>
		</g>
	</g>
	<g>
		<path fill="#919BCE" d="M344.847,541.911c-27.833-12.775-49.708,17.761-33.586,43.798c18.693,30.191,39.331,45.693,51.668,53.729
			c7.689,5.011,31.789,8.301,76.507-1.394c0,0,2.711-5.352-2.719-13.167c0,0-46.022-7.219-56.576-18.062
			C374.485,601.007,345.063,542.011,344.847,541.911z"/>
	</g>
	<g>
		<g>
			<g>
				<polygon fill="#2B488C" points="350.774,874.063 340.457,874.063 337.563,742.78 353.323,742.78 				"/>
			</g>
			<g>
				<polygon fill="#2B488C" points="395.61,874.063 295.275,874.063 295.275,864.999 346.414,860.388 395.61,864.999 				"/>
			</g>
			<g>
				<circle fill="#2B488C" cx="293.781" cy="872.64" r="8.254"/>
			</g>
			<g>
				<circle fill="#2B488C" cx="394.117" cy="872.64" r="8.253"/>
			</g>
			<g>
				<path fill="#2B488C" d="M392.015,751.394h-93.144c-4.757,0-8.613-3.856-8.613-8.612l0,0h110.369l0,0
					C400.627,747.536,396.771,751.394,392.015,751.394z"/>
			</g>
		</g>
		<g>
			<rect x="274.409" y="690.737" fill="#2B488C" width="5.711" height="36.697"/>
		</g>
		<g>
			<path fill="#F89748" d="M276.136,695.788c-0.279,0-0.558-0.013-0.841-0.038c-5.104-0.459-8.871-4.967-8.413-10.072
				c3.342-37.248-1.633-77.132-6.394-104.029c-5.198-29.364-11.286-50.084-11.346-50.29c-1.454-4.914,1.351-10.077,6.265-11.531
				c4.915-1.456,10.076,1.349,11.532,6.262c0.258,0.873,6.397,21.734,11.78,52.064c4.984,28.079,10.183,69.813,6.65,109.185
				C284.936,692.159,280.887,695.788,276.136,695.788z"/>
		</g>
		<g>
			<path fill="#F89748" d="M437.215,756.368c-1.512,0-3.044-0.37-4.461-1.147l-15.961-8.769c-4.227-2.321-9.01-3.549-13.834-3.549
				H274.222c-5.125,0-9.28-4.155-9.28-9.281c0-5.125,4.155-9.279,9.28-9.279h128.737c7.938,0,15.813,2.021,22.771,5.842l15.96,8.77
				c4.492,2.467,6.135,8.107,3.667,12.602C443.667,754.63,440.49,756.368,437.215,756.368z"/>
		</g>
	</g>
</g>
</svg>
