<?xml version="1.0" encoding="utf-8"?>
<!-- Generator: Adobe Illustrator 27.0.0, SVG Export Plug-In . SVG Version: 6.00 Build 0)  -->
<svg version="1.1" id="Layer_1" xmlns="http://www.w3.org/2000/svg" xmlns:xlink="http://www.w3.org/1999/xlink" x="0px" y="0px"
	 viewBox="0 0 512 512" style="enable-background:new 0 0 512 512;" xml:space="preserve">
<style type="text/css">
	.st0{fill:#FFFFFF;}
</style>
<g>
	<path class="st0" d="M68.9,371l-18.5,41.6l49,49l41.6-18.5c19.8,12.2,41.4,21.1,64,26.5l16.3,42.4h69.3l16.3-42.4
		c22.6-5.4,44.2-14.3,64-26.5l41.6,18.5l49-49l-18.5-41.6c12.2-19.8,21.1-41.4,26.5-64l42.4-16.3v-69.3L469.6,205
		c-5.4-22.6-14.3-44.2-26.5-64l18.5-41.6l-49-49l-41.6,18.5c-19.8-12.2-41.4-21.1-64-26.5L290.6,0h-69.3L205,42.4
		c-22.6,5.4-44.2,14.3-64,26.5L99.5,50.5l-49,49L68.9,141c-12.2,19.8-21.1,41.4-26.5,64L0,221.4v69.3L42.4,307
		C47.8,329.6,56.8,351.2,68.9,371z M256,115.7c77.5,0,140.3,62.8,140.3,140.3S333.5,396.3,256,396.3S115.7,333.5,115.7,256
		S178.5,115.7,256,115.7z"/>
	<path class="st0" d="M273.8,278.5c0-0.1,0-0.5-0.1-1.1c-0.5-4-3.3-6.6-6.8-8.4v17.6C270.6,285.1,273.9,282.6,273.8,278.5z"/>
	<path class="st0" d="M241,235.1c0.2,3.3,2.2,5.5,4.9,7.1v-16.1C243,228.1,240.9,231.1,241,235.1z"/>
	<path class="st0" d="M256,376.1c66.3,0,120.1-53.8,120.1-120.1c0-66.3-53.8-120.1-120.1-120.1v0c-66.3,0-120.1,53.8-120.1,120.1
		S189.7,376.1,256,376.1z M207.7,228.4c-1.1-21.9,14.2-38.1,34.5-43.4v-5v-3.9c0-8,6.5-14.5,14.5-14.5c8,0,14.5,6.5,14.5,14.5v9
		c15.2,4.2,26.9,14.4,33,29c3,7.1-0.4,15.2-7.4,18.1c-7.1,3-15.2-0.4-18.1-7.4c-1.7-4-4.3-7.2-7.5-9.5v29.4
		c18.5,5.3,34.3,16,37,37.7c0.1,1.1,0.2,2.5,0.3,4.1c0.5,22.6-17,36.2-37.2,40.7v6.4c0,8-6.5,14.5-14.5,14.5
		c-8,0-14.5-6.5-14.5-14.5v-6.4c-18.5-4.3-33.4-16.7-38.1-35.6c-1.8-7.4,2.7-14.9,10.1-16.7c7.4-1.8,14.9,2.7,16.7,10.1
		c1.6,6.3,5.9,10.6,11.2,13.1v-31.6C224,261.2,208.7,249.9,207.7,228.4z"/>
</g>
</svg>
