<?xml version="1.0" encoding="utf-8"?>
<!-- Generator: Adobe Illustrator 27.0.0, SVG Export Plug-In . SVG Version: 6.00 Build 0)  -->
<svg version="1.1" id="Layer_1" xmlns="http://www.w3.org/2000/svg" xmlns:xlink="http://www.w3.org/1999/xlink" x="0px" y="0px"
	 viewBox="0 0 512 512" style="enable-background:new 0 0 512 512;" xml:space="preserve">
<style type="text/css">
	.st0{fill:#FFFFFF;}
</style>
<path class="st0" d="M233.7,357.7c2.8,2.8,6.7,4.4,10.7,4.4c4,0,7.9-1.6,10.7-4.4l54-53.9c5.9-5.9,5.9-15.5,0-21.4
	c-5.9-5.9-15.5-5.9-21.4,0l-43.3,43.2L224.6,306c-5.9-5.9-15.5-5.9-21.4,0c-5.9,5.9-5.9,15.5,0,21.4L233.7,357.7z"/>
<path class="st0" d="M256.1,439.9c66.2,0,120-53.8,120-119.9s-53.8-119.8-120-119.8c-66.2,0-120,53.8-120,119.8
	S189.9,439.9,256.1,439.9z M256.1,230.4c49.5,0,89.8,40.2,89.8,89.7s-40.3,89.7-89.8,89.7s-89.8-40.2-89.8-89.7
	S206.6,230.4,256.1,230.4z"/>
<path class="st0" d="M457.3,32.9h-27.6V15.8c0-8.3-6.8-15.1-15.1-15.1s-15.1,6.8-15.1,15.1v17.1h-29.7V15.8
	c0-8.3-6.8-15.1-15.1-15.1c-8.3,0-15.1,6.8-15.1,15.1v17.1H172.7V15.8c0-8.3-6.8-15.1-15.1-15.1c-8.3,0-15.1,6.8-15.1,15.1v17.1
	h-29.7V15.8c0-8.3-6.8-15.1-15.1-15.1c-8.3,0-15.1,6.8-15.1,15.1v17.1H54.9C27.9,32.9,6,54.8,6,81.7v381.5
	C6,490.1,27.9,512,54.9,512h402.5c27,0,48.9-21.9,48.9-48.8V81.7C506.2,54.8,484.3,32.9,457.3,32.9z M476,463.2
	c0,10.3-8.4,18.6-18.7,18.6H54.9c-10.3,0-18.7-8.4-18.7-18.6V158.4H476V463.2z M36.2,81.7c0-10.3,8.4-18.6,18.7-18.6h27.6v17.1
	c0,8.3,6.8,15.1,15.1,15.1c8.3,0,15.1-6.8,15.1-15.1V63h29.7v17.1c0,8.3,6.8,15.1,15.1,15.1c8.3,0,15.1-6.8,15.1-15.1V63h166.9v17.1
	c0,8.3,6.8,15.1,15.1,15.1c8.3,0,15.1-6.8,15.1-15.1V63h29.7v17.1c0,8.3,6.8,15.1,15.1,15.1c8.4,0,15.1-6.8,15.1-15.1V63h27.6
	c10.3,0,18.7,8.4,18.7,18.6v46.5H36.2V81.7z"/>
</svg>
