<?xml version="1.0" encoding="utf-8"?>
<!-- Generator: Adobe Illustrator 27.0.0, SVG Export Plug-In . SVG Version: 6.00 Build 0)  -->
<svg version="1.1" id="Layer_2_00000102529313175666647740000017819577915813442736_"
	 xmlns="http://www.w3.org/2000/svg" xmlns:xlink="http://www.w3.org/1999/xlink" x="0px" y="0px" viewBox="0 0 512 512"
	 style="enable-background:new 0 0 512 512;" xml:space="preserve">
<style type="text/css">
	.st0{fill:#FFFFFF;}
</style>
<g>
	<path class="st0" d="M16.1,52.4c0.7-2.4,1.3-4.8,2-7.2c5.5-17.2,21.5-29.1,39.5-29.1c94.9-0.1,189.9-0.1,284.8,0
		c23.2,0,41.5,18.8,41.6,42.5c0.1,34.6,0,69.2,0,103.8c0,15,0.1,29.9,0,44.9c-0.1,11.7-10.5,19.4-21,15.7c-6-2.1-9.6-6.4-10.5-12.8
		c-0.3-1.8-0.3-3.6-0.3-5.5c0-48,0-96,0-143.9c0-9.5-3.5-13.1-13-13.1c-92.8,0-185.5,0-278.3,0c-9.6,0-13.2,3.6-13.2,13.3
		c0,103,0,206.1,0,309.1c0,9.8,3.5,13.3,13.1,13.3c59.3,0,118.6,0,177.9,0c10.3,0,17.6,7.2,17.2,16.8c-0.4,8.8-8.2,15.8-17,15.3
		c-2.4-0.1-4.8-0.3-7.2-0.3c-57.2,0-114.5,0-171.7,0c-18.5,0-32-8-40.2-24.6c-1.8-3.7-2.6-8-3.9-12C16.1,269.9,16.1,161.2,16.1,52.4
		z"/>
	<path class="st0" d="M140.8,495.9c-10.3-4.4-12.9-8.2-12.9-19.6c0-9.5-0.1-19,0.1-28.4c0.2-8,5.4-14,13-15.5
		c6.9-1.4,14.4,2.4,17.1,9c1.1,2.6,1.4,5.5,1.5,8.3c0.2,4.7,0.1,9.3,0.1,14.5c1.6,0,2.8,0,4,0c95.9,0,191.9,0,287.8,0
		c8.9,0,12.6-3.8,12.6-12.8c0-11.4,0-22.8,0-34.3c0-9.9,6.7-17,15.8-17c9.1,0,15.9,7.2,15.9,17c0,12.2,0,24.4,0,36.7
		c0,20.2-14,37.3-33.8,41.4c-0.9,0.2-1.7,0.5-2.5,0.8C353.3,495.9,247.1,495.9,140.8,495.9z"/>
	<path class="st0" d="M310.4,320c2.3,0,3.6,0,5,0c54.1,0,108.3,0,162.4,0c6.3,0,11.7,1.7,15.4,7.2c6.5,9.6,0.5,22.8-11,24.3
		c-2,0.3-4.1,0.3-6.2,0.3c-53.5,0-106.9,0-160.4,0c-1.5,0-2.9,0-5.4,0c1.5,1.6,2.3,2.5,3.2,3.4c11.1,11.1,22.2,22.1,33.2,33.2
		c5.1,5.1,6.3,11.8,3.6,18c-2.6,5.9-8.7,9.7-15.1,9.4c-4.2-0.2-7.8-1.8-10.7-4.7c-21.2-21.2-42.5-42.4-63.7-63.7
		c-6.7-6.7-6.5-16.2,0.2-23c21-21,42-42,63-63c6.8-6.8,16.5-7,23-0.6c6.5,6.4,6.4,16.1-0.4,22.9c-11,11.1-22.1,22.1-33.2,33.2
		C312.6,317.6,311.9,318.4,310.4,320z"/>
	<path class="st0" d="M200.1,127.5c-33.7,0-67.4,0-101.1,0c-2.6,0-5.3-0.1-7.8-0.8c-7.3-2.1-11.8-9-11.1-16.5
		c0.7-7.6,6.5-13.5,14.2-14.3c1.6-0.2,3.2-0.1,4.8-0.1c67.3,0,134.5,0,201.8,0c2.2,0,4.4,0,6.5,0.5c7.7,1.6,12.8,8.3,12.4,16.2
		c-0.3,7.8-6.2,14-13.9,14.9c-1.8,0.2-3.6,0.2-5.5,0.2C267,127.5,233.6,127.5,200.1,127.5z"/>
	<path class="st0" d="M495.9,187.4c0,22.2,0.1,44.3,0,66.5c0,11.2-9.7,18.7-20.1,15.9c-6.3-1.7-11-7.3-11.5-13.9
		c-0.1-1.5-0.1-3-0.1-4.5c0-41.9,0-83.8,0-125.7c0-1.3,0-2.5,0-3.8c-0.4-6-4.4-9.9-10.5-10c-8-0.1-16,0.1-24-0.1
		c-11.5-0.2-19.1-9.8-16-20.3c1.8-6.1,5.9-10.7,12.2-11c11.9-0.5,24.1-1.2,35.9,0.5c20.2,3,34,20.6,34.1,41.2
		C496,144,495.9,165.7,495.9,187.4z"/>
	<path class="st0" d="M160,223c-21,0-42,0.1-63,0c-10.8,0-18.1-8.3-16.5-18.5c1-6.7,6.5-12.1,13.2-13c1.8-0.2,3.6-0.3,5.5-0.3
		c40.7,0,81.3,0,122,0c2.5,0,5.1,0.1,7.5,0.7c7,1.9,11.6,8.4,11.3,15.7c-0.2,7.3-5.3,13.4-12.4,14.9c-1.9,0.4-3.9,0.5-5.8,0.5
		C201.1,223,180.5,223,160,223z"/>
	<path class="st0" d="M144.1,319c-15.9,0-31.8,0.1-47.6,0c-7.1,0-12.4-3.3-15.1-9.9c-2.5-6.1-1.4-11.9,3.1-16.9
		c3.3-3.6,7.5-5,12.3-5c9.8,0,19.6,0,29.5,0c21.6,0,43.2,0,64.8,0c8.4,0,14.5,4.6,16.3,11.9c2.5,10.4-4.9,19.7-16,19.7
		C175.6,319.1,159.8,319,144.1,319z"/>
</g>
</svg>
