<?xml version="1.0" encoding="utf-8"?>
<!-- Generator: Adobe Illustrator 27.0.0, SVG Export Plug-In . SVG Version: 6.00 Build 0)  -->
<svg version="1.1" id="Capa_1" xmlns="http://www.w3.org/2000/svg" xmlns:xlink="http://www.w3.org/1999/xlink" x="0px" y="0px"
	 viewBox="0 0 427.7 427.7" style="enable-background:new 0 0 427.7 427.7;" xml:space="preserve">
<style type="text/css">
	.st0{fill-rule:evenodd;clip-rule:evenodd;fill:#FFFFFF;}
</style>
<g>
	<path class="st0" d="M216.7,392.5v-132c0.1-17.6,14.3-31.9,31.9-31.9h125.1c17.6,0.1,31.9,14.3,31.9,31.9v132
		c-0.1,17.6-14.3,31.9-31.9,31.9H248.6C231,424.4,216.7,410.1,216.7,392.5z M226.1,42.6l67.1,62.9h-67.1
		C226.1,105.5,226.1,42.6,226.1,42.6z M93.2,241.1c-4,0.2-7,3.6-6.9,7.6c-0.2,3.9,2.7,7.3,6.7,7.6c0.1,0,0.1,0,0.2,0h84.2v-15.1
		H93.2z M93.2,295.3c-4,0.2-7,3.6-6.9,7.6c-0.2,3.9,2.7,7.3,6.7,7.6c0.1,0,0.1,0,0.2,0h84.2v-15.1H93.2z M93.2,132.5
		c-4,0.2-7,3.6-6.9,7.6c-0.2,3.9,2.8,7.3,6.7,7.6c0,0,0.1,0,0.1,0h77.9c4-0.2,7-3.6,6.9-7.5c0.2-4-2.8-7.4-6.8-7.6c0,0-0.1,0-0.1,0
		H93.2z M93.2,78.3c-4,0.2-7,3.6-6.9,7.6c-0.2,3.9,2.7,7.3,6.7,7.6c0.1,0,0.1,0,0.2,0H136c4-0.2,7-3.6,6.9-7.6
		c0.2-4-2.8-7.4-6.8-7.6c0,0,0,0-0.1,0L93.2,78.3z M93.2,186.8c-4,0.2-7,3.6-6.9,7.6c-0.2,4,2.8,7.4,6.8,7.6c0,0,0,0,0.1,0h131.7
		c4-0.2,7-3.6,6.9-7.6c0.2-3.9-2.8-7.3-6.7-7.6c0,0-0.1,0-0.1,0H93.2z M330.6,114.5c0-5-3.3-9.4-8.1-10.8l-99-96.3
		c-2.1-2.6-5.3-4.1-8.6-4.1H42.3c-11.1,0-20.1,9-20.1,20.1v344.1c0,5.3,2.1,10.5,5.9,14.2c3.8,3.7,8.9,5.9,14.2,5.9h135.4v-22.4
		H44.6V25.8h159v90.9c0,6.2,5,11.3,11.3,11.3c0,0,0,0,0,0h93.2v73.5h22.5V114.5z M318,277.1l-8.9,45.4l-9-13.7
		c-19.5,7.8-30.5,20.8-32.1,40.6c-16.1-28-6.3-53.2,14.1-67.9l-9.3-13.9C272.7,267.6,318,277.1,318,277.1z M304.3,376.1l8.9-45.4
		l9.1,13.7c19.5-7.8,30.5-20.8,32.1-40.6c16,28,6.3,53.2-14,67.9l9.3,13.9L304.3,376.1L304.3,376.1z"/>
</g>
</svg>
