<?xml version="1.0" encoding="utf-8"?>
<!-- Generator: Adobe Illustrator 27.0.0, SVG Export Plug-In . SVG Version: 6.00 Build 0)  -->
<svg version="1.1" id="svg1527" xmlns:svg="http://www.w3.org/2000/svg"
	 xmlns="http://www.w3.org/2000/svg" xmlns:xlink="http://www.w3.org/1999/xlink" x="0px" y="0px" viewBox="0 0 682.7 682.7"
	 style="enable-background:new 0 0 682.7 682.7;" xml:space="preserve">
<style type="text/css">
	.st0{clip-path:url(#SVGID_00000172421272462165213090000009562657405138284449_);}
	.st1{fill:#FFFFFF;}
</style>
<g id="g1533" transform="matrix(1.3333333,0,0,-1.3333333,0,682.66667)">
	<g id="g1535">
		<g>
			<defs>
				<rect id="SVGID_1_" x="-85.3" y="-85.3" width="682.7" height="682.7"/>
			</defs>
			<use xlink:href="#SVGID_1_"  style="overflow:visible;fill:#FFFFFF;"/>
			<clipPath id="SVGID_00000066511486486627539200000006406062725757798786_">
				<use xlink:href="#SVGID_1_"  style="overflow:visible;"/>
			</clipPath>
			<g id="g1537" style="clip-path:url(#SVGID_00000066511486486627539200000006406062725757798786_);">
				<g id="g1543" transform="translate(502,222)">
					<path id="path1545" class="st1" d="M0,0v68c0,5.5-4.5,10-10,10h-37.4c-5.2,23.6-14.5,45.6-27,65.3l26.4,26.4
						c3.9,3.9,3.9,10.2,0,14.1L-96.1,232c-3.9,3.9-10.2,3.9-14.1,0l-26.4-26.4c-19.7,12.6-41.8,21.9-65.3,27V270c0,5.5-4.5,10-10,10
						h-68c-5.5,0-10-4.5-10-10v-37.5c-23.5-5.2-45.5-14.5-65.2-27.1l-26.5,26.5c-3.9,3.9-10.2,3.9-14.1,0l-48.1-48.1
						c-3.9-3.9-3.9-10.2,0-14.1l26.6-26.6c-12.5-19.7-21.8-41.7-26.9-65.2H-482c-5.5,0-10-4.5-10-10V0c0-5.5,4.5-10,10-10h37.7
						c5.2-23.5,14.4-45.4,27-65.1l-26.7-26.7c-3.9-3.9-3.9-10.2,0-14.1l48.1-48.1c3.9-3.9,10.2-3.9,14.1,0l26.7,26.7
						c19.6-12.5,41.6-21.8,65.1-27V-202c0-5.5,4.5-10,10-10h68c5.5,0,10,4.5,10,10v37.7c23.5,5.2,45.5,14.4,65.2,26.9l26.6-26.6
						c3.9-3.9,10.2-3.9,14.1,0l48.1,48.1c3.9,3.9,3.9,10.2,0,14.1l-26.5,26.5C-62-55.5-52.7-33.5-47.5-10l37.5,0C-4.5-10,0-5.5,0,0z
						"/>
				</g>
				<g id="g1547" transform="translate(377.7056,316.7766)">
					<path id="path1549" class="st1" d="M0,0c25.4-50.9,16.9-114.5-25.5-156.9c-53.1-53.1-139.2-53.1-192.3,0s-53.1,139.2,0,192.3
						C-173.8,79.5-107,87-55.2,57.9"/>
				</g>
				<g id="g1551" transform="translate(354.3455,349.9876)">
					<path id="path1553" class="st1" d="M0,0L0,0"/>
				</g>
				<g id="g1555" transform="translate(297.484,319.6667)">
					<path id="path1557" class="st1" d="M0,0l-55.6-55.6L-83-28.2l-35.9-35.9l27.4-27.4l35.9-35.9l91.5,91.5L0,0z"/>
				</g>
			</g>
		</g>
	</g>
</g>
</svg>
