<?xml version="1.0" encoding="utf-8"?>
<!-- Generator: Adobe Illustrator 27.0.0, SVG Export Plug-In . SVG Version: 6.00 Build 0)  -->
<svg version="1.1" id="Layer_1" xmlns="http://www.w3.org/2000/svg" xmlns:xlink="http://www.w3.org/1999/xlink" x="0px" y="0px"
	 viewBox="0 0 1024 1024" style="enable-background:new 0 0 1024 1024;" xml:space="preserve">
<style type="text/css">
	.st0{fill:#FFFFFF;}
</style>
<g>
	<path class="st0" d="M979.8,319.9c0-37-23.9-60-61-60.1c-59.1-0.1-118.3,0.4-177.4-0.5c-9.5-0.1-20.6-3.7-28.1-9.4
		c-32.6-24.5-64.7-49.8-95.8-76.3c-7.2-6.1-12.7-17.5-13.8-27.1c-4.5-41.1-40-73.8-82-73.4c-41.1,0.4-75.5,33.5-79.6,73.9
		c-1,9.4-7.1,20.6-14.5,26.7c-31.4,26-63.7,51-96.7,75c-8.6,6.2-20.8,10.3-31.4,10.4c-62.8,1-125.6,0.4-188.4,0.5
		c-45.3,0-67,21.6-67,67.1c-0.1,185.3,0,370.7,0,556c0,45.2,23.2,67.9,69,67.9c132.9,0,265.8,0,398.7,0c134.7,0,269.5,0.1,404.2-0.1
		c38.6,0,63.8-24.1,63.8-62.1C980,699.1,980,509.5,979.8,319.9z M378.5,270.4c35-27.5,69.6-55.4,104.9-82.4
		c11.9-9.1,16.7-17.4,11.5-33.6c-8.2-25.9,8.7-45.1,33.5-42c18,2.2,30,20.4,22.9,42c-5.7,17.6,1.3,25.4,13.3,34.7
		c34.2,26.5,67.9,53.7,101.7,80.7c3.6,2.8,6.8,6.1,12.2,11c-104.5,0-206.1,0-307.7,0c-1.3-1.2-2.6-2.4-3.9-3.6
		C371,274.9,375.1,273.1,378.5,270.4z M569.3,565L512,534.9L454.7,565l10.9-63.7l-46.3-45.1l64-9.3l28.6-58l28.6,58l64,9.3
		l-46.3,45.1L569.3,565z M160.7,640.3c5.4-0.5,11-0.2,16.5-0.2c112.2,0,224.5,0,336.7,0c112.2,0,224.5,0,336.7,0
		c14.8,0,31.1-1.3,34,18.9c1.9,13.3-11.9,21.6-34,21.6c-225.7,0-451.4,0-677.1,0c-4.9,0-11.2,1.5-14.3-0.9
		c-7.4-5.9-17.5-13-18.9-20.9C138.2,647,149.2,641.3,160.7,640.3z M884.5,793.4c-2.4,16.3-15,18.9-28.8,18.9
		c-114.6,0-229.3,0-343.9,0c-112.8,0-225.6,0-338.4,0c-15,0-31,0.6-33.8-19.2c-1.9-13.3,11.7-21.2,34.2-21.2
		c225.6,0,451.3,0,676.9,0c1.8,0,3.7,0,5.5,0C873.7,772.4,886.3,781.3,884.5,793.4z"/>
</g>
</svg>
