<?xml version="1.0" encoding="utf-8"?>
<!-- Generator: Adobe Illustrator 27.0.0, SVG Export Plug-In . SVG Version: 6.00 Build 0)  -->
<svg version="1.1" id="_x31__x2C_5_px" xmlns="http://www.w3.org/2000/svg" xmlns:xlink="http://www.w3.org/1999/xlink" x="0px"
	 y="0px" viewBox="0 0 512 512" style="enable-background:new 0 0 512 512;" xml:space="preserve">
<style type="text/css">
	.st0{fill:#FFFFFF;}
</style>
<g>
	<path class="st0" d="M380.4,504.8c-2.1,0-4.1-0.4-6.1-1.2C369.5,501.5,256,452,256,350.4v-83.3c0-6.7,4.2-12.6,10.6-14.7l108.8-37
		c3.2-1.1,6.8-1.1,10,0l108.8,37c6.3,2.2,10.6,8.1,10.6,14.7v83.3c0,101.6-113.5,151.1-118.3,153.1
		C384.5,504.4,382.5,504.8,380.4,504.8L380.4,504.8z M287.1,278.2v72.1c0,69.1,71.6,110.6,93.3,121.6
		c21.6-10.9,93.3-52.5,93.3-121.6v-72.1l-93.3-31.7L287.1,278.2z"/>
	<path class="st0" d="M375.2,411.5c-4.1,0-8.1-1.6-11-4.6l-41.5-41.5c-6.1-6.1-6.1-15.9,0-22c6.1-6.1,15.9-6.1,22,0l28.8,28.8
		l51.4-68.6c5.1-6.9,14.9-8.3,21.8-3.1c6.9,5.1,8.3,14.9,3.1,21.8l-62.2,82.9c-2.7,3.6-6.8,5.8-11.3,6.2
		C375.9,411.5,375.6,411.5,375.2,411.5L375.2,411.5z"/>
	<path class="st0" d="M226.8,442.6H64.2c-31.4,0-57-25.6-57-57V64.2c0-31.4,25.6-57,57-57h238.4c31.4,0,57,25.6,57,57v112.6
		c0,8.6-7,15.5-15.5,15.5c-8.6,0-15.5-7-15.5-15.5V64.2c0-14.3-11.6-25.9-25.9-25.9H64.2C50,38.3,38.3,50,38.3,64.2v321.3
		c0,14.3,11.6,25.9,25.9,25.9h162.5c8.6,0,15.5,7,15.5,15.5S235.4,442.6,226.8,442.6z"/>
	<path class="st0" d="M281.9,204.2H85c-8.6,0-15.5-7-15.5-15.5c0-8.6,7-15.5,15.5-15.5h196.9c8.6,0,15.5,7,15.5,15.5
		C297.5,197.2,290.5,204.2,281.9,204.2z"/>
	<path class="st0" d="M199,287.1H85c-8.6,0-15.5-7-15.5-15.5c0-8.6,7-15.5,15.5-15.5h114c8.6,0,15.5,7,15.5,15.5
		C214.5,280.1,207.6,287.1,199,287.1z"/>
	<path class="st0" d="M178.3,121.3H85c-8.6,0-15.5-7-15.5-15.5s7-15.5,15.5-15.5h93.3c8.6,0,15.5,7,15.5,15.5
		S186.8,121.3,178.3,121.3z"/>
</g>
</svg>
