<?xml version="1.0" encoding="utf-8"?>
<!-- Generator: Adobe Illustrator 27.0.0, SVG Export Plug-In . SVG Version: 6.00 Build 0)  -->
<svg version="1.1" id="Layer_1" xmlns="http://www.w3.org/2000/svg" xmlns:xlink="http://www.w3.org/1999/xlink" x="0px" y="0px"
	 viewBox="0 0 512 512" style="enable-background:new 0 0 512 512;" xml:space="preserve">
<style type="text/css">
	.st0{fill-rule:evenodd;clip-rule:evenodd;fill:#FFFFFF;}
</style>
<g id="Icon">
	<path class="st0" d="M505.9,105c0-16.9-6.7-33.2-18.7-45.2c-12-12-28.3-18.7-45.2-18.7c-89.1,0-282.9,0-371.9,0
		c-16.9,0-33.2,6.7-45.2,18.7C12.8,71.8,6.1,88,6.1,105v232.5c0,35.3,28.6,63.9,63.9,63.9h23.2c3.2,0,5.8,2.6,5.8,5.8v21.4
		c0,15.6,9,29.9,23.1,36.7c14.1,6.8,30.8,4.9,43-4.9l72.1-57.7c1-0.8,2.3-1.3,3.6-1.3H442c16.9,0,33.2-6.7,45.2-18.7
		c12-12,18.7-28.3,18.7-45.2V105z M471,105v232.5c0,7.7-3.1,15.1-8.5,20.6c-5.5,5.4-12.8,8.5-20.6,8.5H240.9
		c-9.3,0-18.2,3.1-25.4,8.9l-72.1,57.7c-1.7,1.4-4.1,1.7-6.1,0.7c-2-1-3.3-3-3.3-5.3v-21.4c0-22.5-18.2-40.7-40.7-40.7H70
		c-16,0-29.1-13-29.1-29.1V105c0-7.7,3.1-15.1,8.5-20.6c5.5-5.4,12.8-8.5,20.6-8.5H442c7.7,0,15.1,3.1,20.6,8.5
		C468,89.9,471,97.3,471,105z"/>
	<path class="st0" d="M281,276c-7.9-9.6-15.5-26.3-13.1-55.6c3.9-47.4,55.3-69.7,55.3-69.7l9.5,14.4c0,0-29,15.6-26.4,51.7
		c1.7-0.2,3.5-0.3,5.3-0.3c20.8,0,37.7,16.9,37.7,37.6c0,20.8-16.9,37.6-37.7,37.6c-5.5,0-10.8-1.2-15.6-3.4
		C295.9,288.3,284.7,282.1,281,276L281,276z"/>
	<path class="st0" d="M176.4,276c-7.9-9.6-15.5-26.3-13.1-55.6c3.9-47.4,55.3-69.7,55.3-69.7l9.5,14.4c0,0-29,15.6-26.4,51.7
		c1.7-0.2,3.5-0.3,5.3-0.3c20.8,0,37.7,16.9,37.7,37.6c0,20.8-16.9,37.6-37.7,37.6c-5.5,0-10.8-1.2-15.6-3.4
		C191.3,288.3,180.1,282.1,176.4,276L176.4,276z"/>
</g>
</svg>
