<?xml version="1.0" encoding="utf-8"?>
<!-- Generator: Adobe Illustrator 27.0.0, SVG Export Plug-In . SVG Version: 6.00 Build 0)  -->
<svg version="1.1" id="Layer_1" xmlns="http://www.w3.org/2000/svg" xmlns:xlink="http://www.w3.org/1999/xlink" x="0px" y="0px"
	 viewBox="0 0 512 512" style="enable-background:new 0 0 512 512;" xml:space="preserve">
<style type="text/css">
	.st0{fill-rule:evenodd;clip-rule:evenodd;fill:#FFFFFF;}
</style>
<path class="st0" d="M408.8,334.5c0-15.5-12.6-28.1-28.1-28.1h-86c-11.5-21.8-8.7-32.1-5.4-43.9c2.3-8.1,4.8-17.2,3.2-30.3
	c-1.6-13.3-8.7-26-17.9-32.4c-6-4.2-12.7-5.6-19.4-4c-6.9,1.6-18.6,8-19.5,32.6c-0.7,18.4-14.6,46.1-25.6,56.6
	c-2.9,2.8-5.8,5.3-8.7,7.8c-7.1,6.2-14.6,12.6-21.8,23c-5-5.9-12.5-9.6-20.8-9.6h-28.2c-15.1,0-27.4,12.3-27.4,27.4v140.1
	c0,7.3,2.8,14.2,8,19.4c5.2,5.2,12.1,8,19.4,8h28.2c10.9,0,20.4-6.4,24.7-15.7C197.8,501,219.8,501,238,501h107.6
	c15.5,0,28.1-12.6,28.1-28.1c0-7.5-3-14.4-7.8-19.4c11.3-3.6,19.5-14.2,19.5-26.7c0-7.4-2.9-14.1-7.5-19.1
	c11.7-3.4,20.4-14.2,20.4-27c0-7.7-3.1-14.6-8.1-19.7C401,357.1,408.8,346.7,408.8,334.5L408.8,334.5z M380.7,352.6h-10.6
	c-2.7,0-5,2.2-5,5s2.3,5,5,5c10,0,18.1,8.1,18.1,18.1s-8.1,18.1-18.1,18.1h-12.8c-2.7,0-5,2.2-5,5s2.3,5,5,5
	c10,0,18.1,8.1,18.1,18.1s-8.1,18.1-18.1,18.1h-11.7c-2.7,0-5,2.2-5,5s2.3,5,5,5c10,0,18.1,8.1,18.1,18.1s-8.1,18.1-18.1,18.1H238
	c-20.3,0-41.3,0-51.8-19.1V333.5c0-2.7-0.4-5.4-1.2-7.9c7.4-11.8,15-18.4,22.9-25.3c2.9-2.5,6-5.2,9-8.1
	c12.9-12.3,28-42.1,28.7-63.5c0.5-13.3,4.7-21.5,11.9-23.2c3.9-0.9,7.7-0.1,11.4,2.5c6.9,4.8,12.4,15,13.6,25.4
	c1.4,11-0.7,18.5-2.9,26.4c-3.3,12-6.8,24.3,3.8,46.6c-4.8-0.4-8.5-3-11.3-7.9c-1.4-2.4-4.4-3.2-6.8-1.8c-2.4,1.4-3.2,4.4-1.8,6.8
	c4.9,8.5,12.2,13,21.1,13h7c0,0,0.1,0,0.2,0h88.8c10,0,18.1,8.1,18.1,18.1S390.7,352.6,380.7,352.6L380.7,352.6z M500.5,140.4
	c-1.3-4.1-4.9-6.8-9.3-6.8l-50.9,0.1l-15.7-48.4c-1.3-4.1-5-6.8-9.3-6.8s-7.9,2.7-9.3,6.8l-15.6,48.4l-50.9-0.1h0
	c-4.3,0-7.9,2.7-9.3,6.8c-1.3,4.1,0.1,8.4,3.6,10.9l41.2,29.8l-15.8,48.4c-1.4,4.1,0,8.4,3.5,10.9c1.8,1.3,3.8,1.9,5.8,1.9
	c2,0,4-0.6,5.7-1.9l41.1-30l41.1,30c3.5,2.5,8,2.5,11.5,0c3.5-2.5,4.9-6.8,3.5-10.9l-15.8-48.4l41.2-29.8
	C500.4,148.8,501.9,144.5,500.5,140.4L500.5,140.4z M449.7,173.2c-3.4,2.5-4.9,6.9-3.5,11l15.7,47.9l-40.7-29.7
	c-3.4-2.5-8.1-2.5-11.5,0L368.9,232l15.7-47.9c1.4-4.1-0.1-8.5-3.5-11l-40.8-29.5l50.4,0.1c4.3,0,8-2.7,9.3-6.8L415.3,89l15.5,47.9
	c1.3,4.1,5,6.7,9.3,6.8l50.4-0.1L449.7,173.2L449.7,173.2z M181.8,140.4c-1.3-4.1-5-6.8-9.3-6.8l-50.9,0.1L106,85.3
	c-1.3-4.1-5-6.8-9.3-6.8s-8,2.7-9.3,6.8l-15.6,48.4l-50.9-0.1c-4.3,0-8,2.7-9.3,6.8c-1.3,4.1,0,8.4,3.6,10.9l41.2,29.8l-15.8,48.4
	c-1.3,4.1,0,8.4,3.6,10.9c1.7,1.3,3.8,1.9,5.7,1.9c2,0,4-0.6,5.7-1.9l41.1-30l41.1,30c3.5,2.5,8,2.5,11.5,0
	c3.5-2.5,4.9-6.8,3.6-10.9L137,181.2l41.2-29.8C181.8,148.8,183.2,144.5,181.8,140.4L181.8,140.4z M131,173.2
	c-3.4,2.5-4.9,6.9-3.6,11l15.7,47.9l-40.7-29.7c-1.7-1.3-3.8-1.9-5.8-1.9s-4,0.6-5.7,1.9L50.2,232l15.7-47.9c1.3-4.1-0.1-8.5-3.6-11
	l-40.8-29.5l50.4,0.1h0c4.3,0,8-2.7,9.3-6.8L96.7,89l15.5,47.9c1.3,4.1,5.1,6.8,9.3,6.8h0l50.4-0.1L131,173.2L131,173.2z
	 M341.2,72.9c-1.3-4.1-5-6.8-9.3-6.8h0L281,66.2l-15.7-48.4c-1.3-4.1-5-6.8-9.3-6.8s-7.9,2.7-9.3,6.8l-15.6,48.4l-50.9-0.1
	c-4.3,0-7.9,2.7-9.3,6.8c-1.3,4.1,0.1,8.4,3.6,10.9l41.2,29.8l-15.8,48.4c-1.3,4.1,0.1,8.4,3.6,10.9c1.8,1.3,3.8,1.9,5.8,1.9
	c2,0,4-0.6,5.7-1.9l41.1-30l41.1,30c3.5,2.5,8,2.5,11.5,0c3.5-2.5,4.9-6.8,3.6-10.9l-15.8-48.4l41.3-29.8
	C341.1,81.3,342.5,77,341.2,72.9L341.2,72.9z M290.4,105.7c-3.5,2.5-4.9,6.9-3.6,11l15.7,47.9l-40.7-29.7c-1.7-1.3-3.8-1.9-5.8-1.9
	s-4,0.6-5.7,1.9l-40.7,29.7l15.7-47.9c1.3-4.1-0.1-8.5-3.6-11l-40.8-29.5l50.4,0.1c4.3,0,8-2.7,9.3-6.8l15.5-48l15.5,48
	c1.3,4.1,5.1,6.8,9.3,6.8h0l50.4-0.1L290.4,105.7L290.4,105.7z"/>
</svg>
