<?xml version="1.0" encoding="utf-8"?>
<!-- Generator: Adobe Illustrator 27.0.0, SVG Export Plug-In . SVG Version: 6.00 Build 0)  -->
<svg version="1.1" id="Capa_1" xmlns="http://www.w3.org/2000/svg" xmlns:xlink="http://www.w3.org/1999/xlink" x="0px" y="0px"
	 viewBox="0 0 512 512" style="enable-background:new 0 0 512 512;" xml:space="preserve">
<style type="text/css">
	.st0{fill:#FFFFFF;}
</style>
<g>
	<g>
		<path class="st0" d="M412,27.9h-55.6C341.7,10.8,320.1,0,296,0h-80c-24.1,0-45.7,10.8-60.4,27.9H100c-24.5,0-44.4,20.1-44.4,44.8
			V464c0,24.7,19.9,44.8,44.4,44.8h312c24.5,0,44.4-20.1,44.4-44.8V72.7C456.4,48,436.5,27.9,412,27.9z M216,29.9h80
			c22.9,0,41.9,15.4,48.1,35.8H167.9C174.1,45.3,193.1,29.9,216,29.9z M426.8,464c0,8.2-6.6,14.9-14.8,14.9H100
			c-8.2,0-14.8-6.7-14.8-14.9V72.7c0-8.2,6.6-14.9,14.8-14.9h39.3c-2.1,7.3-3.3,14.9-3.3,22.9c0,8.2,6.6,14.9,14.8,14.9h210.3
			c8.2,0,14.8-6.7,14.8-14.9c0-8-1.2-15.6-3.3-22.9H412c8.2,0,14.8,6.7,14.8,14.9V464z"/>
		<path class="st0" d="M164.2,362.6c5.4-5.9,39.7-44.8,39.7-44.8c5.8-5.8,5.8-15.3,0-21.1c-5.8-5.8-15.2-5.8-20.9,0l-21.8,22
			c0,0-4-4-5.3-5.4c-5.8-5.8-15.2-5.8-20.9,0c-5.8,5.8-5.8,15.3,0,21.1"/>
		<path class="st0" d="M166,429.4c5.4-5.9,39.7-44.8,39.7-44.8c5.8-5.8,5.8-15.3,0-21.1c-5.8-5.8-15.2-5.8-20.9,0l-21.8,22
			c0,0-4-4-5.3-5.4c-5.8-5.8-15.2-5.8-20.9,0c-5.8,5.8-5.8,15.3,0,21.1"/>
		<path class="st0" d="M365.6,308.6H246.1c-8.2,0-14.8,6.7-14.8,14.9c0,8.2,6.6,14.9,14.8,14.9h119.5c8.2,0,14.8-6.7,14.8-14.9
			C380.4,315.3,373.8,308.6,365.6,308.6z"/>
		<path class="st0" d="M365.6,394.3H246.1c-8.2,0-14.8,6.7-14.8,14.9c0,8.2,6.6,14.9,14.8,14.9h119.5c8.2,0,14.8-6.7,14.8-14.9
			C380.4,401,373.8,394.3,365.6,394.3z"/>
		<path class="st0" d="M309.1,172.2l-35.3,35.6L229,162.7c-5.8-5.8-15.2-5.8-20.9,0l-53.3,53.8c-5.8,5.8-5.8,15.3,0,21.1
			c5.8,5.8,15.2,5.8,20.9,0l42.8-43.2l44.8,45.2c5.8,5.8,15.2,5.8,20.9,0l45.8-46.2"/>
	</g>
	<path class="st0" d="M323.3,190.4l28.5,26c1,0.9,2.6,0.2,2.6-1.1l1.8-72.2l-72.4,1.7c-1.3,0-1.9,1.6-1,2.5L323.3,190.4z"/>
</g>
</svg>
