<?xml version="1.0" encoding="utf-8"?>
<!-- Generator: Adobe Illustrator 27.0.0, SVG Export Plug-In . SVG Version: 6.00 Build 0)  -->
<svg version="1.1" id="Layer_1" xmlns="http://www.w3.org/2000/svg" xmlns:xlink="http://www.w3.org/1999/xlink" x="0px" y="0px"
	 viewBox="0 0 512 512" style="enable-background:new 0 0 512 512;" xml:space="preserve">
<style type="text/css">
	.st0{fill:#FCFCFC;}
</style>
<g>
	<g>
		<path class="st0" d="M475.7,0c-14.7,0-27.8,8.7-33.5,22.3l-32.6,78c-9.7-9.2-22.4-14.9-36.3-14.9h-320C23.9,85.3,0,109.2,0,138.6
			v320C0,488,23.9,512,53.3,512h320c29.4,0,53.3-23.9,53.3-53.3V225.2l81.9-172.8c2.2-4.8,3.4-10,3.4-16C512,16.3,495.7,0,475.7,0z
			 M405.3,458.6c0,17.6-14.4,32-32,32h-320c-17.6,0-32-14.4-32-32v-320c0-17.6,14.4-32,32-32h320c11.2,0,21.3,6.1,27.1,15.6
			l-37.7,90.2V160c0-5.9-4.8-10.7-10.7-10.7H74.7c-5.9,0-10.7,4.8-10.7,10.7v85.3c0,5.9,4.8,10.7,10.7,10.7h269.8l-8.9,21.3h-90.2
			c-5.9,0-10.7,4.8-10.7,10.7v128c0,0.3,0.1,0.5,0.1,0.8c-8.8,7.8-14.1,10.4-14.5,10.5c-3.4,1.3-5.9,4.1-6.7,7.6
			c-0.8,3.6,0.3,7.3,2.9,9.9c15.4,15.4,36.8,21.3,57.6,21.3c26.6,0,52.5-9.6,64.1-21.3c16.8-16.8,29.1-50,19.8-74.8l47.4-99.9
			L405.3,458.6L405.3,458.6z M270.6,397.5c2.9-9.7,5.7-18.9,14.2-27.3c15.1-15.1,33.8-15.1,48.9,0c13.5,13.5,3.2,45.7-10.7,59.6
			c-11.6,11.5-52.7,22.7-80.3,8.3c3.7-2.9,7.9-6.5,12.7-11.3C264.4,417.7,267.6,407.5,270.6,397.5z M256,375.3v-76.7h70.6
			l-16.4,39.1c-14.3-0.3-28.6,5.5-40.4,17.4C263.1,361.8,259,368.7,256,375.3z M331.3,342.7l28.7-68.6l16.1,7.9l-32.6,68.7
			C339.6,347.5,335.5,344.7,331.3,342.7z M341.3,170.6v64h-256v-64H341.3z M489.3,43.2L385.2,262.8l-17-8.3l54.1-129.2l39.6-94.7
			c2.3-5.6,7.7-9.2,13.8-9.2c8.2,0,14.9,6.7,14.9,15.7C490.6,39.1,490.2,41.3,489.3,43.2z"/>
	</g>
</g>
<g>
	<g>
		<path class="st0" d="M181.3,277.3H74.7c-5.9,0-10.7,4.8-10.7,10.7v149.3c0,5.9,4.8,10.7,10.7,10.7h106.7c5.9,0,10.7-4.8,10.7-10.7
			V288C192,282.1,187.2,277.3,181.3,277.3z M170.7,426.6H85.3v-128h85.3L170.7,426.6L170.7,426.6z"/>
	</g>
</g>
</svg>
