<?xml version="1.0" encoding="utf-8"?>
<!-- Generator: Adobe Illustrator 16.0.0, SVG Export Plug-In . SVG Version: 6.00 Build 0)  -->
<!DOCTYPE svg PUBLIC "-//W3C//DTD SVG 1.1//EN" "http://www.w3.org/Graphics/SVG/1.1/DTD/svg11.dtd">
<svg version="1.1" id="Capa_1" xmlns="http://www.w3.org/2000/svg" xmlns:xlink="http://www.w3.org/1999/xlink" x="0px" y="0px"
	 width="123.84px" height="129px" viewBox="898.5 933.5 123.84 129" enable-background="new 898.5 933.5 123.84 129"
	 xml:space="preserve">
<g>
	<g>
		<path fill="#FFFFFF" d="M960.011,939.006c-17.427,0-31.672,14.246-31.672,31.672c0,17.427,14.246,31.673,31.672,31.673
			s31.673-14.246,31.673-31.673C991.684,953.252,977.438,939.006,960.011,939.006z"/>
	</g>
</g>
<g>
	<g>
		<path fill="#FFFFFF" d="M1014.366,1027.662c-0.83-2.075-1.937-4.012-3.182-5.81c-6.362-9.405-16.182-15.629-27.246-17.15
			c-1.383-0.138-2.904,0.139-4.011,0.969c-5.81,4.287-12.725,6.5-19.917,6.5c-7.192,0-14.107-2.213-19.917-6.5
			c-1.106-0.83-2.628-1.245-4.011-0.969c-11.064,1.521-21.023,7.745-27.246,17.15c-1.245,1.798-2.352,3.873-3.182,5.81
			c-0.415,0.829-0.276,1.797,0.139,2.627c1.106,1.937,2.489,3.873,3.734,5.533c1.937,2.627,4.011,4.979,6.362,7.191
			c1.936,1.937,4.149,3.734,6.362,5.532c10.926,8.16,24.065,12.447,37.62,12.447c13.554,0,26.693-4.287,37.619-12.447
			c2.213-1.659,4.426-3.596,6.363-5.532c2.212-2.213,4.425-4.564,6.361-7.191c1.383-1.799,2.629-3.597,3.734-5.533
			C1014.643,1029.459,1014.78,1028.491,1014.366,1027.662z"/>
	</g>
</g>
</svg>
