<?xml version="1.0" encoding="utf-8"?>
<!-- Generator: Adobe Illustrator 16.0.0, SVG Export Plug-In . SVG Version: 6.00 Build 0)  -->
<!DOCTYPE svg PUBLIC "-//W3C//DTD SVG 1.1//EN" "http://www.w3.org/Graphics/SVG/1.1/DTD/svg11.dtd">
<svg version="1.1" id="Capa_1" xmlns="http://www.w3.org/2000/svg" xmlns:xlink="http://www.w3.org/1999/xlink" x="0px" y="0px"
	 width="123.84px" height="129px" viewBox="891.089 924.093 123.84 129" enable-background="new 891.089 924.093 123.84 129"
	 xml:space="preserve">
<g>
	<g>
		<path fill="#939393" d="M955.011,928.106c-17.427,0-31.672,14.246-31.672,31.672c0,17.428,14.246,31.673,31.672,31.673
			c17.427,0,31.673-14.245,31.673-31.673C986.684,942.353,972.438,928.106,955.011,928.106z"/>
	</g>
</g>
<g>
	<g>
		<path fill="#939393" d="M1009.366,1016.763c-0.83-2.075-1.938-4.012-3.183-5.811c-6.361-9.404-16.182-15.629-27.246-17.149
			c-1.383-0.138-2.903,0.139-4.011,0.969c-5.81,4.287-12.725,6.5-19.917,6.5c-7.191,0-14.106-2.213-19.917-6.5
			c-1.105-0.83-2.628-1.245-4.011-0.969c-11.064,1.521-21.023,7.745-27.246,17.149c-1.245,1.799-2.352,3.873-3.182,5.811
			c-0.415,0.829-0.276,1.797,0.139,2.627c1.106,1.937,2.489,3.873,3.734,5.533c1.937,2.627,4.011,4.979,6.361,7.19
			c1.937,1.938,4.149,3.734,6.362,5.532c10.926,8.16,24.065,12.447,37.62,12.447c13.554,0,26.693-4.287,37.619-12.447
			c2.213-1.659,4.426-3.596,6.363-5.532c2.212-2.213,4.425-4.563,6.36-7.19c1.384-1.799,2.629-3.598,3.734-5.533
			C1009.643,1018.56,1009.78,1017.592,1009.366,1016.763z"/>
	</g>
</g>
</svg>
